<svg width="215" height="215" viewBox="0 0 215 215" fill="none" xmlns="http://www.w3.org/2000/svg">
<circle cx="107.5" cy="107.5" r="106" stroke="#D9D9D9" stroke-width="3"/>
<path d="M109.399 44.4176L34.6417 84.984C32.5578 86.1148 32.4334 88.8803 34.4083 90.1701L45.2769 97.2681C46.1595 97.8445 46.6852 98.7865 46.6852 99.7916V109.233C46.6852 110.05 46.3373 110.834 45.7181 111.411L41.8429 115.027C40.8005 115.999 40.5754 117.499 41.2913 118.701L43.4867 122.388C43.946 123.159 44.0287 124.077 43.714 124.909L35.365 146.978C34.7731 148.543 35.6159 150.264 37.2712 150.871L52.0177 156.276C54.3999 157.149 56.8949 155.27 56.4837 152.914L51.9094 126.698C51.7388 125.72 52.0826 124.725 52.8335 124.025L55.8761 121.186C56.81 120.315 57.0975 119.008 56.607 117.864L54.35 112.6C54.194 112.236 54.1139 111.848 54.1139 111.456V107.384C54.1139 105.011 56.8703 103.529 59.0714 104.72L109.371 131.924C110.417 132.489 111.71 132.477 112.742 131.891L186.371 92.5C188.504 91.2894 188.524 88.1803 186.371 87L112.731 44.4246C111.703 43.861 110.429 43.8583 109.399 44.4176Z" stroke="#D9D9D9" stroke-width="3"/>
<path d="M109.446 141.252L73.1062 122.638C71.0969 121.609 68.6025 122.756 68.254 124.87L64.393 148.284C64.171 149.63 64.9233 150.953 66.2429 151.536L109.615 170.703C110.532 171.109 111.597 171.098 112.505 170.675L153.543 151.531C154.799 150.945 155.52 149.683 155.341 148.384L152.14 125.087C151.841 122.911 149.269 121.716 147.227 122.805L112.673 141.226C111.675 141.758 110.453 141.768 109.446 141.252Z" stroke="#D9D9D9" stroke-width="3"/>
</svg>
