<svg width="11" height="24" viewBox="0 0 11 24" fill="none" xmlns="http://www.w3.org/2000/svg">
<path d="M2.37759 4.64804C2.37759 5.25285 2.37759 7.95237 2.37759 7.95237H0V11.9929H2.37759V24H7.26167V11.9932H10.5391C10.5391 11.9932 10.8461 10.0558 10.9948 7.93747C10.5683 7.93747 7.28014 7.93747 7.28014 7.93747C7.28014 7.93747 7.28014 5.58681 7.28014 5.17478C7.28014 4.76187 7.81265 4.20644 8.33897 4.20644C8.8643 4.20644 9.97306 4.20644 11 4.20644C11 3.65631 11 1.75551 11 1.44334e-08C9.62907 1.44334e-08 8.0694 1.44334e-08 7.38191 1.44334e-08C2.25686 -0.000278983 2.37759 4.04429 2.37759 4.64804Z" fill="#D9D9D9"/>
</svg>
