<svg width="215" height="215" viewBox="0 0 215 215" fill="none" xmlns="http://www.w3.org/2000/svg">
<path d="M63 76V41" stroke="#D9D9D9" stroke-width="3"/>
<circle cx="107.5" cy="107.5" r="106" stroke="#D9D9D9" stroke-width="3"/>
<path d="M65.9011 158.119H57.7562H56.2562H46.9854L50.5021 150.662C50.6382 150.374 50.7087 150.059 50.7087 149.74V137.204H55.2728V134.204H50.7087V130.112H55.2728V127.112H50.7087V123.184H55.2728V120.184H50.7087V116.422H55.2728V113.422H50.7087V109.33H55.2728V106.33H50.7087V102.568H55.2728V99.5675H50.7087V95.8052H54.7811H54.945V92.8052H54.7811H50.7087V89.0429H54.7811V86.0429H50.7087V76.3429H73.7681V149.749C73.7681 150.048 73.8299 150.343 73.9498 150.617L77.2351 158.119H67.4011H65.9011ZM57.7562 161.119H65.9011V165.227C65.9011 166.411 66.8573 167.387 68.0567 167.387H71.1458V169.17H52.8393V167.387H55.6006C56.8 167.387 57.7562 166.411 57.7562 165.227V161.119ZM130.198 79.9714H145.063V85.0392C145.063 86.0582 145.555 87.0172 146.387 87.609L168.438 103.282C168.475 103.308 168.5 103.354 168.5 103.406V169.351C168.5 169.442 168.429 169.5 168.361 169.5H108.375C108.307 169.5 108.236 169.442 108.236 169.351V103.374C108.236 103.323 108.26 103.279 108.295 103.252L128.952 87.5835C129.739 86.9869 130.198 86.0561 130.198 85.0713V79.9714ZM145.063 76.9714H130.198H128.698H116.734C116.666 76.9714 116.595 76.9135 116.595 76.8221V60.3286C116.595 60.2371 116.666 60.1792 116.734 60.1792H158.691C158.759 60.1792 158.83 60.2371 158.83 60.3286V76.8221C158.83 76.9135 158.759 76.9714 158.691 76.9714H146.563H145.063ZM143.285 113.422H133.451C132.252 113.422 131.296 114.398 131.296 115.582V124.308H122.634C121.435 124.308 120.478 125.284 120.478 126.468V136.364C120.478 137.547 121.435 138.523 122.634 138.523H131.296V147.249C131.296 148.433 132.252 149.409 133.451 149.409H143.285C144.484 149.409 145.441 148.433 145.441 147.249V138.523H154.102C155.302 138.523 156.258 137.547 156.258 136.364V126.468C156.258 125.284 155.302 124.308 154.102 124.308H145.441V115.582C145.441 114.398 144.484 113.422 143.285 113.422ZM134.296 125.148V116.422H142.441V125.148C142.441 126.332 143.397 127.308 144.596 127.308H153.258V135.523H144.596C143.397 135.523 142.441 136.499 142.441 137.683V146.409H134.296V137.683C134.296 136.499 133.339 135.523 132.14 135.523H123.478V127.308H132.14C133.339 127.308 134.296 126.332 134.296 125.148Z" stroke="#D9D9D9" stroke-width="3"/>
</svg>
