<svg width="108" height="53" viewBox="0 0 108 53" fill="none" xmlns="http://www.w3.org/2000/svg">
<path d="M2.8 49.014C2.70667 49.0233 2.56667 49 2.38 48.944C2.20267 48.8787 2.08133 48.8133 2.016 48.748C1.95067 48.6547 1.89 48.5427 1.834 48.412C1.78733 48.2813 1.75 48.1647 1.722 48.062C1.70333 47.95 1.694 47.8847 1.694 47.866L1.862 46.704C1.90867 46.62 1.932 46.5313 1.932 46.438C1.94133 46.3447 1.96467 46.256 2.002 46.172C1.99267 46.1253 2.00667 46.032 2.044 45.892C2.09067 45.7427 2.142 45.5793 2.198 45.402C2.26333 45.2153 2.324 45.0473 2.38 44.898C2.436 44.7393 2.46867 44.6367 2.478 44.59C2.51533 44.45 2.56667 44.31 2.632 44.17C2.69733 44.03 2.758 43.89 2.814 43.75C2.88867 43.5073 2.94467 43.33 2.982 43.218C3.01933 43.106 3.052 43.0173 3.08 42.952C3.11733 42.8867 3.15933 42.812 3.206 42.728C3.25267 42.6347 3.318 42.4947 3.402 42.308L4.228 40.432C4.13467 40.3853 4.05067 40.2967 3.976 40.166C3.90133 40.026 3.864 39.9 3.864 39.788C3.85467 39.732 3.864 39.6947 3.892 39.676C3.92 39.648 3.96667 39.62 4.032 39.592C4.13467 39.592 4.242 39.5873 4.354 39.578C4.466 39.5687 4.578 39.5733 4.69 39.592C4.774 39.6013 4.83 39.5967 4.858 39.578C4.886 39.55 4.942 39.5453 5.026 39.564C5.11 39.592 5.194 39.6013 5.278 39.592C5.37133 39.5827 5.45067 39.5593 5.516 39.522C5.544 39.522 5.628 39.5173 5.768 39.508C5.908 39.4987 6.062 39.4893 6.23 39.48C6.40733 39.4707 6.56133 39.4613 6.692 39.452C6.832 39.4427 6.916 39.438 6.944 39.438C6.93467 39.438 6.99533 39.4333 7.126 39.424C7.266 39.4147 7.42933 39.4053 7.616 39.396C7.80267 39.3773 7.97067 39.3633 8.12 39.354C8.26933 39.3353 8.35333 39.3213 8.372 39.312C8.568 39.2653 8.70333 39.284 8.778 39.368C8.85267 39.452 8.90867 39.5313 8.946 39.606C8.96467 39.6527 8.988 39.704 9.016 39.76C9.044 39.8067 9.06267 39.8487 9.072 39.886C9.09067 39.914 9.086 39.9327 9.058 39.942C9.01133 40.0073 8.946 40.054 8.862 40.082C8.78733 40.11 8.69867 40.1053 8.596 40.068C8.55867 40.0587 8.42333 40.0587 8.19 40.068C7.95667 40.0773 7.672 40.096 7.336 40.124C7.00933 40.152 6.67333 40.1847 6.328 40.222C5.992 40.25 5.698 40.278 5.446 40.306C5.35267 40.362 5.27333 40.4367 5.208 40.53C5.14267 40.614 5.082 40.7073 5.026 40.81C4.998 40.866 4.93267 40.9967 4.83 41.202C4.73667 41.4073 4.634 41.6313 4.522 41.874C4.41 42.1167 4.31667 42.3267 4.242 42.504C4.16733 42.672 4.13 42.7513 4.13 42.742C4.05533 42.8447 4.074 42.9053 4.186 42.924C4.30733 42.9427 4.41 42.952 4.494 42.952C4.56867 42.952 4.64333 42.9707 4.718 43.008C4.802 43.036 4.88133 43.0453 4.956 43.036C5.00267 43.0267 5.09133 43.0407 5.222 43.078C5.362 43.106 5.51133 43.148 5.67 43.204C5.838 43.2507 5.98733 43.302 6.118 43.358C6.258 43.4047 6.356 43.4467 6.412 43.484C6.62667 43.6147 6.81333 43.7453 6.972 43.876C7.13067 44.0067 7.25667 44.1653 7.35 44.352C7.44333 44.5387 7.52267 44.73 7.588 44.926C7.65333 45.122 7.67667 45.3273 7.658 45.542C7.658 45.5887 7.644 45.6867 7.616 45.836C7.59733 45.976 7.56933 46.1207 7.532 46.27C7.49467 46.4193 7.45267 46.5313 7.406 46.606C7.294 46.7927 7.17267 46.97 7.042 47.138C6.92067 47.2967 6.80867 47.4367 6.706 47.558C6.55667 47.7447 6.37933 47.9033 6.174 48.034C5.978 48.1553 5.77267 48.2673 5.558 48.37C5.39 48.454 5.25933 48.5193 5.166 48.566C5.082 48.6033 5.00267 48.6313 4.928 48.65C4.85333 48.6687 4.75067 48.692 4.62 48.72C4.62933 48.72 4.58267 48.734 4.48 48.762C4.37733 48.7807 4.27467 48.804 4.172 48.832C4.06933 48.86 4.018 48.874 4.018 48.874C3.89667 48.9393 3.77067 48.9813 3.64 49C3.50933 49.0093 3.37867 49.014 3.248 49.014C3.17333 49.014 3.09867 49.0093 3.024 49C2.94933 49 2.87467 49.0047 2.8 49.014ZM2.674 48.272C2.814 48.2627 2.95867 48.258 3.108 48.258C3.25733 48.258 3.40667 48.2393 3.556 48.202C4.02267 48.0713 4.45667 47.9313 4.858 47.782C5.26867 47.6327 5.642 47.3713 5.978 46.998C6.21133 46.7273 6.384 46.4753 6.496 46.242C6.61733 46.0087 6.71067 45.7427 6.776 45.444C6.81333 45.2947 6.81333 45.1593 6.776 45.038C6.73867 44.9073 6.706 44.7533 6.678 44.576C6.594 44.38 6.51467 44.2493 6.44 44.184C6.36533 44.1093 6.29067 44.0627 6.216 44.044C6.14133 44.0253 6.06667 43.9973 5.992 43.96C5.87067 43.8573 5.698 43.7873 5.474 43.75C5.25 43.7127 5.096 43.6893 5.012 43.68C5.068 43.6893 5.054 43.6893 4.97 43.68C4.89533 43.6613 4.78333 43.6427 4.634 43.624C4.48467 43.596 4.33533 43.5727 4.186 43.554C4.03667 43.5353 3.92 43.526 3.836 43.526C3.77067 43.6753 3.70067 43.8387 3.626 44.016C3.56067 44.1933 3.49067 44.3707 3.416 44.548C3.35067 44.716 3.29 44.884 3.234 45.052C3.14067 45.3227 3.052 45.598 2.968 45.878C2.884 46.1487 2.80467 46.424 2.73 46.704C2.69267 46.8627 2.65533 47.054 2.618 47.278C2.58067 47.502 2.562 47.712 2.562 47.908C2.57133 48.0947 2.60867 48.216 2.674 48.272ZM7.97705 52.136C7.93971 52.136 7.89305 52.136 7.83705 52.136C7.78105 52.1453 7.72971 52.108 7.68305 52.024C7.64571 51.9773 7.62238 51.9073 7.61305 51.814C7.61305 51.7207 7.63638 51.5527 7.68305 51.31C7.72971 51.1513 7.76705 50.9927 7.79505 50.834C7.82305 50.6847 7.83705 50.5727 7.83705 50.498C7.83705 50.4607 7.84638 50.386 7.86505 50.274C7.89305 50.1713 7.90705 50.0967 7.90705 50.05C7.95371 49.9753 7.99105 49.8727 8.01905 49.742C8.04705 49.6113 8.06105 49.4947 8.06105 49.392C8.06105 49.28 8.11705 49.1773 8.22905 49.084C8.22905 49.0093 8.24305 48.916 8.27105 48.804C8.30838 48.692 8.32705 48.6173 8.32705 48.58C8.35505 48.4493 8.41571 48.2207 8.50905 47.894C8.61171 47.558 8.73305 47.18 8.87305 46.76C9.02238 46.34 9.16705 45.9293 9.30705 45.528C9.44705 45.1267 9.57305 44.786 9.68505 44.506C9.79705 44.2447 9.87171 44.0207 9.90905 43.834C9.95571 43.638 9.97905 43.4933 9.97905 43.4C9.97905 43.3627 9.98838 43.3347 10.007 43.316C10.0257 43.288 10.0677 43.2367 10.133 43.162C10.2264 43.0687 10.3057 43.0407 10.371 43.078C10.4457 43.1153 10.5344 43.1713 10.637 43.246C10.7117 43.3673 10.763 43.47 10.791 43.554C10.8284 43.638 10.8284 43.7827 10.791 43.988C10.791 44.128 10.7677 44.2493 10.721 44.352C10.6744 44.4547 10.6324 44.534 10.595 44.59C10.5577 44.6367 10.5484 44.6553 10.567 44.646C10.9497 44.4687 11.2857 44.3753 11.575 44.366C11.8737 44.3473 12.121 44.3987 12.317 44.52C12.5224 44.632 12.6764 44.7907 12.779 44.996C12.8817 45.2013 12.933 45.4393 12.933 45.71C12.933 45.822 12.9097 45.9573 12.863 46.116C12.8164 46.2653 12.7557 46.4053 12.681 46.536C12.6157 46.6573 12.555 46.746 12.499 46.802C12.4617 46.802 12.4244 46.8347 12.387 46.9C12.3497 46.956 12.3124 47.0213 12.275 47.096C12.2004 47.1893 12.079 47.2967 11.911 47.418C11.7524 47.53 11.5937 47.6233 11.435 47.698C11.2764 47.7633 11.1597 47.782 11.085 47.754C11.085 47.754 11.071 47.7587 11.043 47.768C11.0244 47.768 11.015 47.7913 11.015 47.838C11.015 47.8567 10.9404 47.8987 10.791 47.964C10.6417 48.02 10.469 48.076 10.273 48.132C10.077 48.1787 9.90438 48.202 9.75505 48.202C9.55905 48.202 9.41905 48.1647 9.33505 48.09C9.31638 48.1087 9.29305 48.1367 9.26505 48.174C9.24638 48.2113 9.23705 48.244 9.23705 48.272C9.23705 48.328 9.21371 48.4353 9.16705 48.594C9.12971 48.7433 9.08305 48.888 9.02705 49.028C8.97105 49.168 8.91971 49.238 8.87305 49.238C8.87305 49.238 8.86371 49.252 8.84505 49.28C8.82638 49.308 8.83571 49.3453 8.87305 49.392C8.87305 49.392 8.86838 49.4433 8.85905 49.546C8.85905 49.658 8.83571 49.7513 8.78905 49.826C8.78905 49.9007 8.77505 50.0127 8.74705 50.162C8.71905 50.3113 8.68638 50.4233 8.64905 50.498C8.64905 50.61 8.63038 50.7173 8.59305 50.82C8.56505 50.932 8.53238 50.988 8.49505 50.988C8.45771 50.9973 8.43438 51.0533 8.42505 51.156C8.41571 51.268 8.41105 51.3473 8.41105 51.394C8.40171 51.6273 8.35505 51.8093 8.27105 51.94C8.18705 52.0707 8.08905 52.136 7.97705 52.136ZM9.67105 47.46C9.74571 47.46 9.89971 47.4273 10.133 47.362C10.3664 47.2967 10.6044 47.2173 10.847 47.124C11.099 47.0213 11.2857 46.9187 11.407 46.816C11.6497 46.6013 11.8364 46.3587 11.967 46.088C12.107 45.808 12.0977 45.542 11.939 45.29C11.8644 45.1593 11.729 45.108 11.533 45.136C11.337 45.1547 11.1224 45.2293 10.889 45.36C10.6557 45.4907 10.4364 45.654 10.231 45.85C10.119 45.9713 10.0164 46.1207 9.92305 46.298C9.82971 46.4753 9.75038 46.6527 9.68505 46.83C9.62905 47.0073 9.59638 47.1567 9.58705 47.278C9.57771 47.3993 9.60571 47.46 9.67105 47.46ZM17.0233 48.972C16.93 48.8787 16.8367 48.7527 16.7433 48.594C16.65 48.426 16.5753 48.2347 16.5193 48.02C16.5007 47.9453 16.4913 47.8427 16.4913 47.712C16.5007 47.5813 16.5007 47.488 16.4913 47.432C16.4633 47.4973 16.4167 47.5673 16.3513 47.642C16.2953 47.7073 16.2393 47.7633 16.1833 47.81C16.146 47.8473 16.062 47.922 15.9313 48.034C15.8007 48.1367 15.67 48.2207 15.5393 48.286C15.2313 48.482 14.9747 48.5893 14.7693 48.608C14.5733 48.6267 14.3867 48.524 14.2093 48.3C14.06 48.1787 13.9527 48.0433 13.8873 47.894C13.8313 47.7447 13.8313 47.5393 13.8873 47.278C13.906 46.9513 13.9527 46.634 14.0273 46.326C14.102 46.0087 14.256 45.5887 14.4893 45.066C14.6853 44.6833 14.8347 44.4033 14.9373 44.226C15.04 44.0393 15.1053 43.9273 15.1333 43.89C15.2733 43.8433 15.39 43.848 15.4833 43.904C15.5767 43.9507 15.6327 44.0393 15.6513 44.17C15.7073 44.2633 15.698 44.422 15.6233 44.646C15.558 44.87 15.4413 45.1453 15.2733 45.472C15.1427 45.7893 15.0213 46.1067 14.9093 46.424C14.8067 46.7413 14.746 47.012 14.7273 47.236C14.7087 47.46 14.7647 47.5953 14.8953 47.642C14.9793 47.6887 15.124 47.6747 15.3293 47.6C15.544 47.5253 15.782 47.3387 16.0433 47.04C16.314 46.7413 16.5753 46.2887 16.8273 45.682C16.902 45.4953 16.958 45.332 16.9953 45.192C17.0327 45.0427 17.056 44.8793 17.0653 44.702C17.0467 44.59 17.0513 44.492 17.0793 44.408C17.1167 44.3147 17.1913 44.2353 17.3033 44.17C17.3407 44.1233 17.392 44.0813 17.4573 44.044C17.5227 43.9973 17.5647 43.9973 17.5833 44.044L17.8073 44.03C17.8447 44.0207 17.868 44.044 17.8773 44.1C17.896 44.1467 17.9287 44.1887 17.9753 44.226C18.078 44.31 18.106 44.492 18.0593 44.772C18.0127 45.052 17.882 45.444 17.6673 45.948C17.49 46.3307 17.3687 46.62 17.3033 46.816C17.2473 47.012 17.2147 47.2033 17.2053 47.39C17.2053 47.558 17.238 47.7167 17.3033 47.866C17.3687 48.0153 17.4713 48.1507 17.6113 48.272C17.714 48.3373 17.77 48.412 17.7793 48.496C17.798 48.58 17.8027 48.678 17.7933 48.79C17.7747 48.874 17.7187 48.944 17.6253 49C17.5413 49.0467 17.4433 49.07 17.3313 49.07C17.2193 49.07 17.1167 49.0373 17.0233 48.972ZM19.251 48.482C19.223 48.4447 19.195 48.398 19.167 48.342C19.1483 48.286 19.139 48.2393 19.139 48.202C19.139 48.1833 19.1343 48.16 19.125 48.132C19.125 48.104 19.1063 48.09 19.069 48.09C19.041 48.062 19.0597 47.9547 19.125 47.768C19.1997 47.572 19.293 47.348 19.405 47.096C19.5263 46.844 19.6477 46.6013 19.769 46.368C19.8997 46.1253 20.007 45.934 20.091 45.794C20.1377 45.766 20.1657 45.7287 20.175 45.682C20.1937 45.626 20.1937 45.598 20.175 45.598C20.175 45.598 20.1983 45.556 20.245 45.472C20.301 45.3787 20.343 45.318 20.371 45.29C20.4457 45.1593 20.5017 45.0287 20.539 44.898C20.5763 44.758 20.5857 44.6413 20.567 44.548C20.5297 44.5013 20.4877 44.4873 20.441 44.506C20.3943 44.5247 20.371 44.534 20.371 44.534C20.3337 44.5433 20.2777 44.562 20.203 44.59C20.1377 44.6087 20.077 44.6367 20.021 44.674C19.8063 44.8233 19.6617 44.8933 19.587 44.884C19.5123 44.8653 19.4283 44.744 19.335 44.52C19.2977 44.4173 19.2837 44.3427 19.293 44.296C19.3023 44.2493 19.3397 44.198 19.405 44.142C19.4797 44.0767 19.5497 44.0347 19.615 44.016C19.6803 43.988 19.7317 43.96 19.769 43.932C19.8717 43.8667 19.9557 43.82 20.021 43.792C20.0957 43.764 20.1517 43.7453 20.189 43.736C20.4317 43.6613 20.637 43.6473 20.805 43.694C20.973 43.7407 21.099 43.862 21.183 44.058C21.3137 44.2167 21.379 44.3987 21.379 44.604C21.379 44.8 21.3137 45.0287 21.183 45.29L21.043 45.5C20.9963 45.5933 20.987 45.64 21.015 45.64C21.0523 45.64 21.0943 45.6073 21.141 45.542C21.169 45.5047 21.225 45.4487 21.309 45.374C21.393 45.2993 21.449 45.262 21.477 45.262C21.477 45.262 21.4863 45.2573 21.505 45.248C21.533 45.2387 21.547 45.2013 21.547 45.136C21.575 45.108 21.603 45.08 21.631 45.052C21.6683 45.024 21.687 45.01 21.687 45.01C21.7243 45.01 21.7943 44.968 21.897 44.884C22.009 44.7907 22.1397 44.6833 22.289 44.562C22.3917 44.4873 22.485 44.45 22.569 44.45C22.7837 44.3847 22.9563 44.4547 23.087 44.66C23.227 44.8653 23.297 45.1313 23.297 45.458L23.003 46.214L23.507 45.598C23.563 45.5233 23.619 45.458 23.675 45.402C23.7403 45.346 23.7963 45.2993 23.843 45.262C23.8617 45.1967 23.8897 45.1593 23.927 45.15C23.9643 45.1407 23.983 45.136 23.983 45.136C23.983 45.136 23.9923 45.136 24.011 45.136C24.0297 45.1267 24.039 45.108 24.039 45.08C24.0857 45.0427 24.137 45.01 24.193 44.982C24.249 44.9447 24.2863 44.9073 24.305 44.87C24.4637 44.8047 24.6083 44.7953 24.739 44.842C24.8697 44.8793 24.9817 44.996 25.075 45.192C25.1403 45.304 25.1777 45.402 25.187 45.486C25.1963 45.57 25.201 45.696 25.201 45.864C25.1823 46.004 25.1637 46.116 25.145 46.2C25.1357 46.2747 25.1263 46.354 25.117 46.438C25.1077 46.522 25.0937 46.6387 25.075 46.788C25.0377 46.8627 25.0143 46.942 25.005 47.026C25.005 47.11 25.005 47.1893 25.005 47.264C25.005 47.3853 25.0097 47.4693 25.019 47.516C25.0283 47.5533 25.0657 47.572 25.131 47.572C25.2617 47.544 25.439 47.4787 25.663 47.376C25.8963 47.264 26.069 47.1567 26.181 47.054C26.321 46.9233 26.4423 46.858 26.545 46.858C26.657 46.8487 26.727 46.9 26.755 47.012C26.7737 47.0493 26.741 47.1333 26.657 47.264C26.5823 47.3947 26.4937 47.5207 26.391 47.642C26.2977 47.7633 26.2277 47.824 26.181 47.824C26.153 47.824 26.1203 47.852 26.083 47.908C26.0457 47.9547 26.0037 47.992 25.957 48.02C25.8917 48.0853 25.8263 48.146 25.761 48.202C25.705 48.258 25.6397 48.286 25.565 48.286C25.5277 48.286 25.481 48.3 25.425 48.328C25.3783 48.3467 25.3223 48.356 25.257 48.356C25.1637 48.384 25.019 48.37 24.823 48.314C24.6363 48.258 24.515 48.1273 24.459 47.922C24.4217 47.8193 24.389 47.656 24.361 47.432C24.333 47.1987 24.3377 46.9653 24.375 46.732C24.4123 46.564 24.4357 46.41 24.445 46.27C24.4543 46.13 24.473 46.032 24.501 45.976C24.501 45.948 24.501 45.8827 24.501 45.78C24.501 45.668 24.487 45.612 24.459 45.612C24.4217 45.612 24.333 45.682 24.193 45.822C24.0623 45.9527 23.9037 46.1207 23.717 46.326C23.5397 46.5313 23.3623 46.746 23.185 46.97C23.0077 47.194 22.863 47.3947 22.751 47.572C22.667 47.6747 22.5923 47.8007 22.527 47.95C22.4617 48.0993 22.415 48.1833 22.387 48.202C22.3217 48.2767 22.2423 48.286 22.149 48.23C22.065 48.174 21.9857 48.0853 21.911 47.964C21.883 47.908 21.8643 47.8613 21.855 47.824C21.8457 47.7773 21.8457 47.7167 21.855 47.642C21.8737 47.558 21.9063 47.4367 21.953 47.278C22.009 47.1193 22.0837 46.8953 22.177 46.606C22.2797 46.2887 22.3683 46.004 22.443 45.752C22.527 45.4907 22.569 45.36 22.569 45.36C22.569 45.3227 22.499 45.36 22.359 45.472C22.219 45.5747 22.0557 45.7053 21.869 45.864C21.785 45.9667 21.645 46.1207 21.449 46.326C21.253 46.5313 21.0383 46.7647 20.805 47.026C20.5717 47.2873 20.3477 47.5627 20.133 47.852C19.8623 48.2347 19.671 48.468 19.559 48.552C19.4563 48.636 19.3537 48.6127 19.251 48.482ZM28.6213 48.594C28.5466 48.6127 28.4486 48.622 28.3273 48.622C28.2059 48.6127 28.0986 48.5987 28.0053 48.58C27.9213 48.552 27.8792 48.524 27.8792 48.496C27.8792 48.4493 27.8559 48.426 27.8093 48.426C27.8093 48.426 27.7859 48.4073 27.7393 48.37C27.7019 48.3327 27.6413 48.2953 27.5573 48.258C27.4733 48.1273 27.4313 47.9873 27.4313 47.838C27.4313 47.6793 27.4733 47.432 27.5573 47.096C27.5853 46.8627 27.6739 46.592 27.8233 46.284C27.9819 45.9667 28.1733 45.6447 28.3973 45.318C28.6213 44.9913 28.8546 44.6973 29.0973 44.436C29.3493 44.1747 29.5779 43.9833 29.7833 43.862C29.9139 43.7313 30.0726 43.6613 30.2593 43.652C30.4459 43.6427 30.6233 43.6847 30.7913 43.778C30.8846 43.8247 30.9779 43.8993 31.0713 44.002C31.1646 44.1047 31.2533 44.2167 31.3373 44.338C31.4213 44.4593 31.4913 44.5807 31.5473 44.702C31.5753 44.8047 31.5893 44.898 31.5893 44.982C31.5986 45.0567 31.5986 45.15 31.5893 45.262C31.5893 45.374 31.5753 45.542 31.5473 45.766C31.5006 45.934 31.4586 46.1393 31.4213 46.382C31.3933 46.6247 31.3793 46.8347 31.3793 47.012C31.3606 47.1893 31.3793 47.3153 31.4353 47.39C31.5006 47.4647 31.5939 47.4693 31.7153 47.404C31.8273 47.348 31.9346 47.3247 32.0373 47.334C32.1399 47.334 32.2193 47.362 32.2753 47.418C32.3406 47.474 32.3733 47.558 32.3733 47.67C32.3733 47.782 32.3173 47.8987 32.2053 48.02C32.1026 48.132 31.9719 48.23 31.8133 48.314C31.6639 48.3887 31.5193 48.426 31.3793 48.426C31.2766 48.426 31.1786 48.3653 31.0853 48.244C30.9919 48.1133 30.9079 47.9593 30.8333 47.782C30.7679 47.5953 30.7073 47.418 30.6513 47.25L30.5673 46.928L29.9653 47.502C29.8439 47.6327 29.7226 47.754 29.6013 47.866C29.4893 47.9687 29.4193 48.0433 29.3913 48.09C29.3446 48.174 29.2559 48.258 29.1253 48.342C29.0039 48.426 28.8359 48.51 28.6213 48.594ZM28.6633 47.768C28.8219 47.6747 29.0039 47.5393 29.2093 47.362C29.4146 47.1753 29.6153 46.9747 29.8113 46.76C30.0073 46.536 30.1706 46.3307 30.3013 46.144C30.4599 45.9293 30.5813 45.7287 30.6653 45.542C30.7493 45.3553 30.8099 45.178 30.8473 45.01C30.8099 44.9073 30.7493 44.8 30.6653 44.688C30.5813 44.5667 30.5066 44.5013 30.4413 44.492C30.2359 44.492 30.0166 44.6227 29.7833 44.884C29.5593 45.136 29.3399 45.4113 29.1253 45.71C29.0879 45.7567 29.0366 45.8313 28.9713 45.934C28.9059 46.0367 28.8406 46.1347 28.7753 46.228C28.7193 46.312 28.6819 46.368 28.6633 46.396C28.6353 46.4333 28.5793 46.5407 28.4953 46.718C28.4206 46.886 28.3459 47.0587 28.2713 47.236C28.1966 47.404 28.1593 47.516 28.1593 47.572C28.1593 47.628 28.1639 47.6887 28.1733 47.754C28.1919 47.8193 28.2386 47.8613 28.3133 47.88C28.3879 47.8987 28.5046 47.8613 28.6633 47.768ZM33.7784 48.678C33.7131 48.6593 33.6244 48.6407 33.5124 48.622C33.4004 48.6033 33.2977 48.5707 33.2044 48.524C33.1204 48.468 33.0784 48.398 33.0784 48.314C33.0784 48.2393 33.0831 48.174 33.0924 48.118C33.1111 48.0527 33.1484 47.9967 33.2044 47.95C33.2137 47.9313 33.2184 47.9173 33.2184 47.908C33.2184 47.8987 33.2231 47.8893 33.2324 47.88C33.2324 47.8333 33.2231 47.7913 33.2044 47.754C33.1857 47.7167 33.1857 47.67 33.2044 47.614C33.2417 47.5113 33.2697 47.4273 33.2884 47.362C33.3164 47.2873 33.3304 47.194 33.3304 47.082C33.3304 47.0633 33.3304 47.0447 33.3304 47.026C33.3304 46.998 33.3351 46.9747 33.3444 46.956C33.4191 46.7507 33.4797 46.5407 33.5264 46.326C33.5731 46.1113 33.6431 45.906 33.7364 45.71C33.8484 45.4673 33.9931 45.15 34.1704 44.758C34.3477 44.3567 34.4971 43.988 34.6184 43.652C34.6557 43.5493 34.6977 43.484 34.7444 43.456C34.8004 43.4187 34.8611 43.4047 34.9264 43.414C35.0384 43.4233 35.1504 43.4887 35.2624 43.61C35.3744 43.722 35.4584 43.82 35.5144 43.904C35.4211 44.0813 35.3091 44.2913 35.1784 44.534C35.0571 44.7673 34.9404 44.996 34.8284 45.22C34.7257 45.4347 34.6511 45.612 34.6044 45.752C34.7351 45.7613 34.8891 45.7613 35.0664 45.752C35.2531 45.7333 35.4351 45.7333 35.6124 45.752C35.8177 45.7707 35.9997 45.7707 36.1584 45.752C36.3171 45.7333 36.4944 45.71 36.6904 45.682C36.7371 45.542 36.7837 45.3833 36.8304 45.206C36.8864 45.0287 36.9424 44.8467 36.9984 44.66C37.0637 44.4733 37.1431 44.3007 37.2364 44.142C37.3297 43.9833 37.4464 43.862 37.5864 43.778C37.6611 43.7593 37.7171 43.7593 37.7544 43.778C37.7917 43.7873 37.8431 43.8153 37.9084 43.862C38.0297 43.9553 38.1184 44.03 38.1744 44.086C38.2397 44.1327 38.2631 44.1887 38.2444 44.254C38.2257 44.3193 38.1651 44.4267 38.0624 44.576C37.9971 44.6787 37.9504 44.8 37.9224 44.94C37.8944 45.0707 37.8431 45.1827 37.7684 45.276C37.7497 45.2947 37.7124 45.3787 37.6564 45.528C37.6004 45.6773 37.5351 45.8593 37.4604 46.074C37.3857 46.2887 37.3111 46.5033 37.2364 46.718C37.1617 46.9327 37.0964 47.1193 37.0404 47.278C36.9937 47.4367 36.9704 47.53 36.9704 47.558C36.9611 47.6793 36.9424 47.8053 36.9144 47.936C36.8864 48.0573 36.8724 48.1833 36.8724 48.314C36.8724 48.3887 36.8491 48.4447 36.8024 48.482C36.7651 48.51 36.7137 48.524 36.6484 48.524C36.5551 48.524 36.4524 48.5007 36.3404 48.454C36.2284 48.4073 36.1444 48.3653 36.0884 48.328C36.0511 48.3 36.0184 48.2533 35.9904 48.188C35.9717 48.1227 35.9577 48.0667 35.9484 48.02C36.0044 47.7867 36.0697 47.5673 36.1444 47.362C36.2284 47.1473 36.3031 46.928 36.3684 46.704C36.3871 46.6667 36.3964 46.6293 36.3964 46.592C36.3964 46.5547 36.3871 46.5173 36.3684 46.48C36.0604 46.4333 35.7477 46.424 35.4304 46.452C35.1131 46.48 34.8004 46.5033 34.4924 46.522C34.4457 46.5687 34.3897 46.6807 34.3244 46.858C34.2684 47.026 34.2171 47.2033 34.1704 47.39C34.1237 47.5673 34.0864 47.7027 34.0584 47.796C34.0677 47.8613 34.0584 47.9547 34.0304 48.076C34.0024 48.1973 33.9651 48.3187 33.9184 48.44C33.8717 48.552 33.8251 48.6313 33.7784 48.678ZM40.3733 48.846C40.1026 48.8927 39.8553 48.8787 39.6313 48.804C39.4073 48.72 39.2253 48.5847 39.0853 48.398C38.9546 48.202 38.8893 47.9547 38.8893 47.656C38.8613 47.376 38.8939 47.054 38.9873 46.69C39.0806 46.3167 39.2159 45.9433 39.3933 45.57C39.5799 45.1967 39.7806 44.8747 39.9953 44.604C40.1819 44.38 40.3686 44.1747 40.5553 43.988C40.7419 43.8013 40.9099 43.6753 41.0593 43.61C41.1899 43.554 41.3113 43.5213 41.4233 43.512C41.5446 43.4933 41.6426 43.484 41.7173 43.484C41.8666 43.5213 42.0253 43.5913 42.1933 43.694C42.3706 43.7873 42.4593 43.89 42.4593 44.002C42.4593 44.002 42.4686 44.016 42.4873 44.044C42.5153 44.0627 42.5293 44.072 42.5293 44.072C42.5853 44.072 42.6319 44.1327 42.6693 44.254C42.7159 44.3753 42.7439 44.5153 42.7533 44.674C42.7626 44.8233 42.7393 44.9493 42.6833 45.052C42.6459 45.2293 42.5806 45.3833 42.4873 45.514C42.3939 45.6447 42.3099 45.71 42.2353 45.71C42.1979 45.71 42.1606 45.7147 42.1233 45.724C42.0953 45.724 42.0813 45.7473 42.0813 45.794C42.0813 45.8407 42.0533 45.8593 41.9973 45.85C41.9506 45.8407 41.8993 45.8127 41.8433 45.766C41.7873 45.71 41.7453 45.6447 41.7173 45.57C41.7173 45.5233 41.7359 45.444 41.7733 45.332C41.8106 45.22 41.8479 45.0753 41.8853 44.898C41.9413 44.6367 41.9366 44.4687 41.8713 44.394C41.8059 44.31 41.6799 44.3053 41.4933 44.38C41.2599 44.5107 41.0359 44.6927 40.8213 44.926C40.6159 45.1593 40.4246 45.4627 40.2473 45.836C40.0699 46.2 39.9113 46.6573 39.7713 47.208C39.7153 47.4227 39.6919 47.6093 39.7013 47.768C39.7199 47.9267 39.7433 48.0107 39.7713 48.02C39.9019 48.0573 40.0793 48.0667 40.3033 48.048C40.5273 48.02 40.6906 47.978 40.7933 47.922C40.9426 47.8473 41.1106 47.7493 41.2973 47.628C41.4839 47.4973 41.6473 47.3807 41.7873 47.278C41.8339 47.25 41.8899 47.2033 41.9553 47.138C42.0206 47.0727 42.0906 47.0213 42.1653 46.984C42.2399 46.872 42.3053 46.8067 42.3613 46.788C42.4173 46.7693 42.5013 46.76 42.6133 46.76C42.6879 46.7787 42.7579 46.8067 42.8233 46.844C42.8886 46.8813 42.9306 46.9187 42.9493 46.956C42.9773 46.9933 42.9633 47.026 42.9073 47.054C42.8699 47.054 42.8466 47.068 42.8373 47.096C42.8373 47.1147 42.8373 47.124 42.8373 47.124C42.8559 47.1613 42.8139 47.2407 42.7113 47.362C42.6179 47.474 42.4966 47.6 42.3473 47.74C42.1979 47.88 42.0533 48.0013 41.9133 48.104C41.7826 48.1973 41.6893 48.244 41.6333 48.244C41.5399 48.244 41.4933 48.272 41.4933 48.328C41.4933 48.3467 41.4233 48.3933 41.2833 48.468C41.1526 48.5427 40.9986 48.6173 40.8213 48.692C40.6533 48.7667 40.5039 48.818 40.3733 48.846ZM43.9918 48.93C43.9172 48.902 43.8378 48.846 43.7538 48.762C43.6698 48.6687 43.5998 48.5613 43.5438 48.44C43.4878 48.3187 43.4598 48.2067 43.4598 48.104C43.5065 48.0013 43.5672 47.824 43.6418 47.572C43.7165 47.3107 43.8098 47.012 43.9218 46.676C43.9965 46.5733 44.0525 46.452 44.0898 46.312C44.1365 46.172 44.1785 46.046 44.2158 45.934C44.2905 45.7847 44.3792 45.5933 44.4818 45.36C44.5845 45.1173 44.6825 44.8747 44.7758 44.632C44.8785 44.38 44.9672 44.17 45.0418 44.002C45.1445 43.7593 45.2052 43.61 45.2238 43.554C45.2425 43.4887 45.2565 43.4373 45.2658 43.4C45.2658 43.3253 45.2845 43.2647 45.3218 43.218C45.3592 43.162 45.3965 43.134 45.4338 43.134C45.4712 43.0967 45.5132 43.078 45.5598 43.078C45.6158 43.0687 45.6625 43.064 45.6998 43.064C45.8025 43.064 45.8912 43.134 45.9658 43.274C46.0405 43.4047 46.0778 43.526 46.0778 43.638C46.0778 43.75 46.0358 43.9087 45.9518 44.114C45.8772 44.31 45.7885 44.5153 45.6858 44.73C45.5925 44.9447 45.5132 45.1313 45.4478 45.29C45.3825 45.4487 45.3638 45.542 45.3918 45.57C45.3918 45.57 45.4572 45.542 45.5878 45.486C45.7185 45.4207 45.8585 45.332 46.0078 45.22C46.1105 45.164 46.2225 45.094 46.3438 45.01C46.4652 44.926 46.5818 44.8467 46.6938 44.772C46.8058 44.688 46.8992 44.6367 46.9738 44.618C47.0858 44.5433 47.2025 44.4733 47.3238 44.408C47.4452 44.3333 47.5245 44.2773 47.5618 44.24C47.7205 44.1653 47.8372 44.142 47.9118 44.17C47.9958 44.198 48.0798 44.268 48.1638 44.38C48.2665 44.5013 48.2852 44.6087 48.2198 44.702C48.1545 44.786 48.0005 44.9027 47.7578 45.052C47.5618 45.1733 47.3238 45.318 47.0438 45.486C46.7732 45.654 46.5305 45.8033 46.3158 45.934C46.1105 46.0647 45.9938 46.144 45.9658 46.172C45.9658 46.172 46.0032 46.242 46.0778 46.382C46.1525 46.522 46.2272 46.648 46.3018 46.76C46.3765 46.9093 46.4558 47.0493 46.5398 47.18C46.6332 47.3013 46.6798 47.3853 46.6798 47.432C46.7545 47.628 46.8478 47.7913 46.9598 47.922C47.0718 48.0433 47.1978 48.1227 47.3378 48.16C47.4872 48.188 47.6365 48.1693 47.7858 48.104C47.9725 48.0293 48.1078 48.006 48.1918 48.034C48.2852 48.062 48.3505 48.132 48.3878 48.244C48.4252 48.3187 48.4345 48.3747 48.4158 48.412C48.4065 48.44 48.3458 48.51 48.2338 48.622C48.0565 48.7993 47.8745 48.9113 47.6878 48.958C47.5105 49.0047 47.3472 48.9907 47.1978 48.916C47.1045 48.916 46.9972 48.8787 46.8758 48.804C46.7545 48.72 46.6052 48.5847 46.4278 48.398C46.2598 48.2113 46.0498 47.95 45.7978 47.614C45.7978 47.5767 45.7792 47.5253 45.7418 47.46C45.7138 47.3853 45.6812 47.3153 45.6438 47.25C45.6065 47.1753 45.5598 47.096 45.5038 47.012C45.4478 46.9187 45.4198 46.872 45.4198 46.872C45.4198 46.844 45.4105 46.8207 45.3918 46.802C45.3825 46.774 45.3638 46.7413 45.3358 46.704C45.3172 46.6667 45.2938 46.6247 45.2658 46.578C45.1165 46.5313 45.0092 46.5593 44.9438 46.662C44.8785 46.7647 44.8085 46.872 44.7338 46.984C44.6872 47.1053 44.6265 47.278 44.5518 47.502C44.4865 47.7167 44.4305 47.9267 44.3838 48.132C44.3465 48.3373 44.3372 48.4773 44.3558 48.552C44.3558 48.7013 44.3325 48.804 44.2858 48.86C44.2392 48.9067 44.1412 48.93 43.9918 48.93ZM52.4931 49.014C52.3998 49.0607 52.2924 49.0327 52.1711 48.93C52.0498 48.8273 51.9658 48.7433 51.9191 48.678C51.8351 48.566 51.7744 48.412 51.7371 48.216C51.6998 48.02 51.6811 47.8567 51.6811 47.726C51.6811 47.4833 51.6624 47.3433 51.6251 47.306C51.5971 47.2687 51.5364 47.3013 51.4431 47.404C51.3591 47.4973 51.2331 47.628 51.0651 47.796C50.9904 47.8707 50.8691 47.9687 50.7011 48.09C50.5331 48.2113 50.3604 48.314 50.1831 48.398C50.0058 48.482 49.8564 48.524 49.7351 48.524C49.6511 48.5147 49.5671 48.468 49.4831 48.384C49.3991 48.3 49.3244 48.2067 49.2591 48.104C49.2031 47.992 49.1611 47.8987 49.1331 47.824C49.0864 47.684 49.0818 47.4553 49.1191 47.138C49.1658 46.8113 49.2404 46.452 49.3431 46.06C49.4551 45.6587 49.5811 45.276 49.7211 44.912C49.8704 44.5387 50.0198 44.2353 50.1691 44.002C50.3278 43.7593 50.4818 43.638 50.6311 43.638C50.7338 43.638 50.8131 43.6987 50.8691 43.82C50.9344 43.932 50.9858 44.0253 51.0231 44.1C51.0698 44.1933 51.0838 44.254 51.0651 44.282C51.0558 44.31 51.0184 44.3613 50.9531 44.436C50.8784 44.5293 50.7898 44.688 50.6871 44.912C50.5844 45.1267 50.4771 45.3647 50.3651 45.626C50.2624 45.878 50.1691 46.1207 50.0851 46.354C50.0011 46.5873 49.9404 46.7647 49.9031 46.886C49.8844 46.9607 49.8564 47.0633 49.8191 47.194C49.7911 47.3247 49.7818 47.4273 49.7911 47.502C49.7911 47.5113 49.7958 47.5347 49.8051 47.572C49.8144 47.6 49.8518 47.614 49.9171 47.614C50.1224 47.614 50.3278 47.53 50.5331 47.362C50.7478 47.1847 50.9578 46.956 51.1631 46.676C51.3778 46.396 51.5784 46.102 51.7651 45.794C51.9518 45.486 52.1244 45.192 52.2831 44.912C52.4511 44.632 52.5958 44.4033 52.7171 44.226C52.8384 44.0393 52.9364 43.9413 53.0111 43.932C53.0764 43.9227 53.1511 43.932 53.2351 43.96C53.3284 43.9787 53.4078 44.0113 53.4731 44.058C53.5384 44.1047 53.5664 44.17 53.5571 44.254C53.4451 44.5993 53.3098 44.9447 53.1511 45.29C52.9924 45.626 52.8431 45.9667 52.7031 46.312C52.5724 46.6573 52.4791 47.012 52.4231 47.376C52.3858 47.6 52.3998 47.8193 52.4651 48.034C52.5398 48.2487 52.6564 48.44 52.8151 48.608C52.9084 48.7013 52.8991 48.79 52.7871 48.874C52.6751 48.958 52.5771 49.0047 52.4931 49.014ZM57.2597 48.972C57.1943 49.0093 57.1057 48.9953 56.9937 48.93C56.891 48.8647 56.7883 48.7667 56.6857 48.636C56.6203 48.524 56.5737 48.4027 56.5457 48.272C56.527 48.1413 56.5177 47.9593 56.5177 47.726C56.527 47.5393 56.5177 47.418 56.4897 47.362C56.471 47.306 56.4197 47.3153 56.3357 47.39C56.2517 47.4553 56.107 47.5907 55.9017 47.796C55.6683 48.0293 55.4443 48.2113 55.2297 48.342C55.0243 48.4727 54.8563 48.5333 54.7257 48.524C54.6603 48.524 54.5857 48.4913 54.5017 48.426C54.427 48.3513 54.357 48.2627 54.2917 48.16C54.2263 48.048 54.1703 47.936 54.1237 47.824C54.0677 47.6187 54.0583 47.3573 54.0957 47.04C54.1423 46.7133 54.217 46.3727 54.3197 46.018C54.4223 45.6633 54.539 45.3273 54.6697 45.01C54.8097 44.6927 54.9497 44.436 55.0897 44.24C55.239 44.044 55.3697 43.946 55.4817 43.946C55.5563 43.946 55.6217 43.9833 55.6777 44.058C55.743 44.1327 55.8083 44.2493 55.8737 44.408C55.911 44.4733 55.925 44.5293 55.9157 44.576C55.9157 44.6227 55.8783 44.6787 55.8037 44.744C55.7197 44.856 55.6217 45.024 55.5097 45.248C55.407 45.472 55.3043 45.7147 55.2017 45.976C55.1083 46.2373 55.0243 46.4893 54.9497 46.732C54.875 46.9747 54.8237 47.1753 54.7957 47.334C54.7677 47.4833 54.7723 47.558 54.8097 47.558C54.9403 47.558 55.0943 47.5067 55.2717 47.404C55.4583 47.292 55.6357 47.1567 55.8037 46.998C55.9997 46.802 56.1723 46.5873 56.3217 46.354C56.4803 46.1207 56.639 45.8733 56.7977 45.612C56.919 45.4253 57.045 45.22 57.1757 44.996C57.3157 44.772 57.4043 44.6133 57.4417 44.52C57.5723 44.2773 57.6703 44.114 57.7357 44.03C57.801 43.9367 57.8803 43.876 57.9737 43.848C58.0203 43.848 58.0623 43.848 58.0997 43.848C58.1463 43.848 58.1697 43.848 58.1697 43.848C58.2257 43.8573 58.291 43.8993 58.3657 43.974C58.4403 44.0113 58.4823 44.0487 58.4917 44.086C58.501 44.114 58.5057 44.1513 58.5057 44.198C58.4683 44.2913 58.4077 44.4313 58.3237 44.618C58.249 44.7953 58.193 44.926 58.1557 45.01C57.9783 45.4113 57.801 45.808 57.6237 46.2C57.4557 46.5827 57.3343 46.9747 57.2597 47.376C57.241 47.5067 57.2363 47.6607 57.2457 47.838C57.2643 48.006 57.2923 48.1273 57.3297 48.202C57.3577 48.258 57.3903 48.3233 57.4277 48.398C57.4743 48.4633 57.5257 48.5193 57.5817 48.566C57.6657 48.622 57.6797 48.6827 57.6237 48.748C57.577 48.8133 57.5117 48.8693 57.4277 48.916C57.3437 48.9533 57.2877 48.972 57.2597 48.972ZM57.0777 43.162C56.7883 43.1993 56.5457 43.1153 56.3497 42.91C56.1537 42.7047 56.0043 42.4013 55.9017 42C55.883 41.9253 55.8737 41.86 55.8737 41.804C55.883 41.7387 55.9017 41.6827 55.9297 41.636C55.9483 41.5987 55.9857 41.5707 56.0417 41.552C56.0977 41.524 56.1443 41.5193 56.1817 41.538C56.3123 41.5847 56.4057 41.6453 56.4617 41.72C56.527 41.7853 56.569 41.8693 56.5877 41.972C56.6063 42.0187 56.6157 42.0653 56.6157 42.112C56.625 42.1587 56.6297 42.1773 56.6297 42.168C56.6763 42.3173 56.737 42.42 56.8117 42.476C56.8863 42.532 56.9983 42.5273 57.1477 42.462C57.3063 42.3967 57.4603 42.322 57.6097 42.238C57.7683 42.154 57.9083 42.0513 58.0297 41.93C58.1323 41.8273 58.2303 41.734 58.3237 41.65C58.4263 41.566 58.5243 41.4773 58.6177 41.384L58.6317 41.37C58.669 41.342 58.7157 41.3327 58.7717 41.342C58.8277 41.3513 58.8603 41.3653 58.8697 41.384C58.935 41.4493 58.9677 41.5147 58.9677 41.58C58.9677 41.6453 58.9677 41.7153 58.9677 41.79L58.9537 41.818C58.9723 41.874 58.9257 41.9813 58.8137 42.14C58.711 42.2987 58.585 42.434 58.4357 42.546C58.305 42.6487 58.165 42.742 58.0157 42.826C57.8663 42.91 57.7123 42.9893 57.5537 43.064C57.4883 43.1013 57.4183 43.1247 57.3437 43.134C57.2783 43.134 57.1897 43.1433 57.0777 43.162ZM66.4602 48.748C66.3109 48.7013 66.1802 48.6313 66.0682 48.538C65.9562 48.4353 65.8489 48.3233 65.7462 48.202C65.6995 48.146 65.6202 48.034 65.5082 47.866C65.3962 47.698 65.2749 47.5113 65.1442 47.306C65.0229 47.1007 64.9062 46.9093 64.7942 46.732C64.6822 46.5453 64.5982 46.4053 64.5422 46.312C64.4955 46.452 64.4442 46.5687 64.3882 46.662C64.3415 46.746 64.3182 46.8813 64.3182 47.068C64.2249 47.1987 64.1549 47.348 64.1082 47.516C64.0709 47.6747 64.0289 47.8333 63.9822 47.992C63.9542 48.0947 63.9075 48.188 63.8422 48.272C63.7862 48.356 63.7115 48.4307 63.6182 48.496C63.5062 48.4867 63.4082 48.4493 63.3242 48.384C63.2495 48.3187 63.1842 48.2533 63.1282 48.188C63.0722 48.076 63.0489 47.9687 63.0582 47.866C63.0675 47.7633 63.0909 47.6653 63.1282 47.572C63.1469 47.488 63.1982 47.3247 63.2822 47.082C63.3755 46.8393 63.4735 46.578 63.5762 46.298C63.6789 46.0087 63.7722 45.752 63.8562 45.528C63.9402 45.2947 63.9869 45.15 63.9962 45.094C64.0522 44.9073 64.1502 44.7067 64.2902 44.492C64.4395 44.268 64.5422 44.0253 64.5982 43.764C64.6169 43.6987 64.6635 43.638 64.7382 43.582C64.8129 43.5167 64.8969 43.484 64.9902 43.484C65.0929 43.4747 65.1769 43.526 65.2422 43.638C65.2609 43.6473 65.2889 43.6613 65.3262 43.68C65.3635 43.6893 65.3915 43.708 65.4102 43.736C65.4849 43.82 65.5269 43.9087 65.5362 44.002C65.5549 44.0953 65.5362 44.1933 65.4802 44.296C65.3589 44.5107 65.2562 44.688 65.1722 44.828C65.0975 44.9587 65.0229 45.1033 64.9482 45.262C64.8735 45.4207 64.7895 45.64 64.6962 45.92C64.8549 45.8827 64.9715 45.8547 65.0462 45.836C65.1209 45.808 65.1909 45.766 65.2562 45.71C65.3309 45.6447 65.4289 45.5467 65.5502 45.416C65.5969 45.3693 65.6902 45.2807 65.8302 45.15C65.9795 45.01 66.1335 44.8607 66.2922 44.702C66.4602 44.5433 66.6049 44.4033 66.7262 44.282C66.8569 44.1607 66.9269 44.0907 66.9362 44.072C66.9922 43.988 67.0482 43.9133 67.1042 43.848C67.1695 43.7733 67.2535 43.7173 67.3562 43.68C67.4962 43.6987 67.5942 43.7267 67.6502 43.764C67.7062 43.792 67.8135 43.8713 67.9722 44.002C68.0189 44.0393 68.0375 44.128 68.0282 44.268C68.0189 44.3987 67.9675 44.5013 67.8742 44.576C67.7062 44.7067 67.4962 44.8747 67.2442 45.08C66.9922 45.2853 66.7215 45.5 66.4322 45.724C66.1522 45.948 65.8722 46.158 65.5922 46.354C65.7229 46.5687 65.8395 46.774 65.9422 46.97C66.0449 47.1567 66.1289 47.3153 66.1942 47.446C66.2129 47.6793 66.2969 47.838 66.4462 47.922C66.6049 47.9967 66.7962 48.034 67.0202 48.034C67.0949 48.0713 67.1415 48.118 67.1602 48.174C67.1882 48.2207 67.2022 48.2767 67.2022 48.342C67.2115 48.398 67.2209 48.454 67.2302 48.51C67.0995 48.594 67.0062 48.6687 66.9502 48.734C66.9035 48.79 66.8475 48.8227 66.7822 48.832C66.7262 48.832 66.6189 48.804 66.4602 48.748ZM69.2762 48.79C69.1548 48.79 69.0568 48.7667 68.9822 48.72C68.9168 48.6733 68.8328 48.608 68.7302 48.524C68.5528 48.3373 68.4268 48.16 68.3522 47.992C68.2775 47.8147 68.2542 47.6467 68.2822 47.488C68.3102 47.4133 68.3195 47.3433 68.3102 47.278C68.3102 47.2033 68.3102 47.166 68.3102 47.166C68.2635 47.1193 68.2495 47.0913 68.2682 47.082C68.2868 47.0633 68.3055 47.0353 68.3242 46.998C68.3802 46.998 68.3988 46.9467 68.3802 46.844C68.3615 46.7693 68.3988 46.606 68.4922 46.354C68.5855 46.102 68.7022 45.864 68.8422 45.64C68.8982 45.5467 68.9822 45.4253 69.0942 45.276C69.2062 45.1173 69.3275 44.9633 69.4582 44.814C69.5982 44.6553 69.7242 44.5293 69.8362 44.436C70.0695 44.24 70.2748 44.0953 70.4522 44.002C70.6295 43.9087 70.8208 43.8387 71.0262 43.792C71.2315 43.7453 71.3715 43.722 71.4462 43.722C71.5302 43.722 71.6422 43.7967 71.7822 43.946C71.9968 44.0393 72.1508 44.1513 72.2442 44.282C72.3468 44.4127 72.4122 44.604 72.4402 44.856C72.4682 45.136 72.4448 45.458 72.3702 45.822C72.3048 46.1767 72.0855 46.62 71.7122 47.152C71.4788 47.488 71.2642 47.74 71.0682 47.908C70.8722 48.0667 70.6388 48.2253 70.3682 48.384C70.1722 48.5147 69.9948 48.6127 69.8362 48.678C69.6775 48.734 69.4908 48.7713 69.2762 48.79ZM70.6202 47.306C70.8442 47.054 71.0215 46.816 71.1522 46.592C71.2922 46.368 71.4228 46.0833 71.5442 45.738C71.5815 45.6353 71.6048 45.5093 71.6142 45.36C71.6235 45.2013 71.6188 45.0567 71.6002 44.926C71.5908 44.786 71.5582 44.7067 71.5022 44.688C71.3902 44.6227 71.2548 44.604 71.0962 44.632C70.9375 44.6507 70.7648 44.7393 70.5782 44.898C70.2888 45.1407 70.0368 45.444 69.8222 45.808C69.6075 46.1627 69.3975 46.5687 69.1922 47.026C69.0522 47.362 69.0195 47.6327 69.0942 47.838C69.1782 48.034 69.3508 48.104 69.6122 48.048C69.8828 47.9827 70.2188 47.7353 70.6202 47.306ZM73.6377 48.482C73.6097 48.4447 73.5817 48.398 73.5537 48.342C73.535 48.286 73.5257 48.2393 73.5257 48.202C73.5257 48.1833 73.521 48.16 73.5117 48.132C73.5117 48.104 73.493 48.09 73.4557 48.09C73.4277 48.062 73.4464 47.9547 73.5117 47.768C73.5864 47.572 73.6797 47.348 73.7917 47.096C73.913 46.844 74.0344 46.6013 74.1557 46.368C74.2864 46.1253 74.3937 45.934 74.4777 45.794C74.5244 45.766 74.5524 45.7287 74.5617 45.682C74.5804 45.626 74.5804 45.598 74.5617 45.598C74.5617 45.598 74.585 45.556 74.6317 45.472C74.6877 45.3787 74.7297 45.318 74.7577 45.29C74.8324 45.1593 74.8884 45.0287 74.9257 44.898C74.963 44.758 74.9724 44.6413 74.9537 44.548C74.9164 44.5013 74.8744 44.4873 74.8277 44.506C74.781 44.5247 74.7577 44.534 74.7577 44.534C74.7204 44.5433 74.6644 44.562 74.5897 44.59C74.5244 44.6087 74.4637 44.6367 74.4077 44.674C74.193 44.8233 74.0484 44.8933 73.9737 44.884C73.899 44.8653 73.815 44.744 73.7217 44.52C73.6844 44.4173 73.6704 44.3427 73.6797 44.296C73.689 44.2493 73.7264 44.198 73.7917 44.142C73.8664 44.0767 73.9364 44.0347 74.0017 44.016C74.067 43.988 74.1184 43.96 74.1557 43.932C74.2584 43.8667 74.3424 43.82 74.4077 43.792C74.4824 43.764 74.5384 43.7453 74.5757 43.736C74.8184 43.6613 75.0237 43.6473 75.1917 43.694C75.3597 43.7407 75.4857 43.862 75.5697 44.058C75.7004 44.2167 75.7657 44.3987 75.7657 44.604C75.7657 44.8 75.7004 45.0287 75.5697 45.29L75.4297 45.5C75.383 45.5933 75.3737 45.64 75.4017 45.64C75.439 45.64 75.481 45.6073 75.5277 45.542C75.5557 45.5047 75.6117 45.4487 75.6957 45.374C75.7797 45.2993 75.8357 45.262 75.8637 45.262C75.8637 45.262 75.873 45.2573 75.8917 45.248C75.9197 45.2387 75.9337 45.2013 75.9337 45.136C75.9617 45.108 75.9897 45.08 76.0177 45.052C76.055 45.024 76.0737 45.01 76.0737 45.01C76.111 45.01 76.181 44.968 76.2837 44.884C76.3957 44.7907 76.5264 44.6833 76.6757 44.562C76.7784 44.4873 76.8717 44.45 76.9557 44.45C77.1704 44.3847 77.343 44.4547 77.4737 44.66C77.6137 44.8653 77.6837 45.1313 77.6837 45.458L77.3897 46.214L77.8937 45.598C77.9497 45.5233 78.0057 45.458 78.0617 45.402C78.127 45.346 78.183 45.2993 78.2297 45.262C78.2484 45.1967 78.2764 45.1593 78.3137 45.15C78.351 45.1407 78.3697 45.136 78.3697 45.136C78.3697 45.136 78.379 45.136 78.3977 45.136C78.4164 45.1267 78.4257 45.108 78.4257 45.08C78.4724 45.0427 78.5237 45.01 78.5797 44.982C78.6357 44.9447 78.673 44.9073 78.6917 44.87C78.8504 44.8047 78.995 44.7953 79.1257 44.842C79.2564 44.8793 79.3684 44.996 79.4617 45.192C79.527 45.304 79.5644 45.402 79.5737 45.486C79.583 45.57 79.5877 45.696 79.5877 45.864C79.569 46.004 79.5504 46.116 79.5317 46.2C79.5224 46.2747 79.513 46.354 79.5037 46.438C79.4944 46.522 79.4804 46.6387 79.4617 46.788C79.4244 46.8627 79.401 46.942 79.3917 47.026C79.3917 47.11 79.3917 47.1893 79.3917 47.264C79.3917 47.3853 79.3964 47.4693 79.4057 47.516C79.415 47.5533 79.4524 47.572 79.5177 47.572C79.6484 47.544 79.8257 47.4787 80.0497 47.376C80.283 47.264 80.4557 47.1567 80.5677 47.054C80.7077 46.9233 80.829 46.858 80.9317 46.858C81.0437 46.8487 81.1137 46.9 81.1417 47.012C81.1604 47.0493 81.1277 47.1333 81.0437 47.264C80.969 47.3947 80.8804 47.5207 80.7777 47.642C80.6844 47.7633 80.6144 47.824 80.5677 47.824C80.5397 47.824 80.507 47.852 80.4697 47.908C80.4324 47.9547 80.3904 47.992 80.3437 48.02C80.2784 48.0853 80.213 48.146 80.1477 48.202C80.0917 48.258 80.0264 48.286 79.9517 48.286C79.9144 48.286 79.8677 48.3 79.8117 48.328C79.765 48.3467 79.709 48.356 79.6437 48.356C79.5504 48.384 79.4057 48.37 79.2097 48.314C79.023 48.258 78.9017 48.1273 78.8457 47.922C78.8084 47.8193 78.7757 47.656 78.7477 47.432C78.7197 47.1987 78.7244 46.9653 78.7617 46.732C78.799 46.564 78.8224 46.41 78.8317 46.27C78.841 46.13 78.8597 46.032 78.8877 45.976C78.8877 45.948 78.8877 45.8827 78.8877 45.78C78.8877 45.668 78.8737 45.612 78.8457 45.612C78.8084 45.612 78.7197 45.682 78.5797 45.822C78.449 45.9527 78.2904 46.1207 78.1037 46.326C77.9264 46.5313 77.749 46.746 77.5717 46.97C77.3944 47.194 77.2497 47.3947 77.1377 47.572C77.0537 47.6747 76.979 47.8007 76.9137 47.95C76.8484 48.0993 76.8017 48.1833 76.7737 48.202C76.7084 48.2767 76.629 48.286 76.5357 48.23C76.4517 48.174 76.3724 48.0853 76.2977 47.964C76.2697 47.908 76.251 47.8613 76.2417 47.824C76.2324 47.7773 76.2324 47.7167 76.2417 47.642C76.2604 47.558 76.293 47.4367 76.3397 47.278C76.3957 47.1193 76.4704 46.8953 76.5637 46.606C76.6664 46.2887 76.755 46.004 76.8297 45.752C76.9137 45.4907 76.9557 45.36 76.9557 45.36C76.9557 45.3227 76.8857 45.36 76.7457 45.472C76.6057 45.5747 76.4424 45.7053 76.2557 45.864C76.1717 45.9667 76.0317 46.1207 75.8357 46.326C75.6397 46.5313 75.425 46.7647 75.1917 47.026C74.9584 47.2873 74.7344 47.5627 74.5197 47.852C74.249 48.2347 74.0577 48.468 73.9457 48.552C73.843 48.636 73.7404 48.6127 73.6377 48.482ZM83.162 49.042C82.7513 49.042 82.4153 48.888 82.154 48.58C81.8926 48.2627 81.7666 47.8707 81.776 47.404C81.7946 47.068 81.86 46.7087 81.972 46.326C82.0933 45.934 82.252 45.5607 82.448 45.206C82.644 44.842 82.8586 44.5247 83.092 44.254C83.3253 43.9833 83.568 43.792 83.82 43.68C83.9133 43.6333 84.0113 43.596 84.114 43.568C84.226 43.54 84.338 43.526 84.45 43.526C84.5526 43.526 84.66 43.5447 84.772 43.582C84.884 43.61 84.9773 43.6427 85.052 43.68C85.2106 43.7453 85.332 43.8247 85.416 43.918C85.5 44.0113 85.5746 44.156 85.64 44.352C85.668 44.5293 85.682 44.6553 85.682 44.73C85.682 44.8047 85.6586 44.9167 85.612 45.066C85.5 45.402 85.3553 45.6913 85.178 45.934C85.0006 46.1767 84.7626 46.382 84.464 46.55C84.3893 46.5967 84.3006 46.634 84.198 46.662C84.1046 46.6807 84.0066 46.69 83.904 46.69C83.7173 46.69 83.5353 46.6573 83.358 46.592C83.19 46.5173 83.0546 46.41 82.952 46.27L82.854 46.158L82.812 46.27C82.7186 46.522 82.644 46.7553 82.588 46.97C82.5413 47.1847 82.518 47.3807 82.518 47.558C82.518 47.67 82.5273 47.7773 82.546 47.88C82.574 47.9827 82.6113 48.0713 82.658 48.146C82.6953 48.202 82.756 48.244 82.84 48.272C82.9333 48.2907 83.0313 48.3 83.134 48.3C83.1993 48.3 83.2646 48.3 83.33 48.3C83.4046 48.2907 83.4746 48.272 83.54 48.244C83.6986 48.188 83.8246 48.1273 83.918 48.062C84.0206 47.9967 84.1233 47.9267 84.226 47.852L84.282 47.824H84.268C84.38 47.768 84.478 47.712 84.562 47.656C84.6553 47.6 84.702 47.572 84.702 47.572C84.7393 47.572 84.7766 47.5487 84.814 47.502C84.8886 47.4647 84.982 47.4787 85.094 47.544C85.2153 47.6093 85.276 47.6933 85.276 47.796C85.2666 47.8427 85.2246 47.9173 85.15 48.02C85.0753 48.1133 84.9913 48.202 84.898 48.286C84.814 48.37 84.744 48.4167 84.688 48.426C84.6786 48.4353 84.646 48.454 84.59 48.482C84.534 48.5007 84.4966 48.5193 84.478 48.538H84.492C84.408 48.65 84.324 48.706 84.24 48.706H84.128C84.0906 48.7713 83.9693 48.846 83.764 48.93C83.5586 49.0047 83.358 49.042 83.162 49.042ZM83.792 45.962C83.96 45.962 84.1046 45.9153 84.226 45.822C84.3566 45.7193 84.4686 45.6073 84.562 45.486C84.7486 45.234 84.856 44.9913 84.884 44.758C84.9213 44.5153 84.8933 44.3473 84.8 44.254C84.744 44.226 84.6926 44.212 84.646 44.212C84.6086 44.2027 84.5293 44.2167 84.408 44.254C84.324 44.2727 84.2073 44.3427 84.058 44.464C83.9086 44.5853 83.7593 44.7207 83.61 44.87C83.47 45.0193 83.3626 45.1453 83.288 45.248L83.106 45.542C83.1806 45.514 83.2506 45.5 83.316 45.5C83.3906 45.4907 83.4326 45.4953 83.442 45.514C83.442 45.598 83.456 45.6773 83.484 45.752C83.5213 45.8173 83.5633 45.8687 83.61 45.906C83.666 45.9433 83.7266 45.962 83.792 45.962ZM89.7167 48.972C89.6514 49.0093 89.5627 48.9953 89.4507 48.93C89.348 48.8647 89.2454 48.7667 89.1427 48.636C89.0774 48.524 89.0307 48.4027 89.0027 48.272C88.984 48.1413 88.9747 47.9593 88.9747 47.726C88.984 47.5393 88.9747 47.418 88.9467 47.362C88.928 47.306 88.8767 47.3153 88.7927 47.39C88.7087 47.4553 88.564 47.5907 88.3587 47.796C88.1254 48.0293 87.9014 48.2113 87.6867 48.342C87.4814 48.4727 87.3134 48.5333 87.1827 48.524C87.1174 48.524 87.0427 48.4913 86.9587 48.426C86.884 48.3513 86.814 48.2627 86.7487 48.16C86.6834 48.048 86.6274 47.936 86.5807 47.824C86.5247 47.6187 86.5154 47.3573 86.5527 47.04C86.5994 46.7133 86.674 46.3727 86.7767 46.018C86.8794 45.6633 86.996 45.3273 87.1267 45.01C87.2667 44.6927 87.4067 44.436 87.5467 44.24C87.696 44.044 87.8267 43.946 87.9387 43.946C88.0134 43.946 88.0787 43.9833 88.1347 44.058C88.2 44.1327 88.2654 44.2493 88.3307 44.408C88.368 44.4733 88.382 44.5293 88.3727 44.576C88.3727 44.6227 88.3354 44.6787 88.2607 44.744C88.1767 44.856 88.0787 45.024 87.9667 45.248C87.864 45.472 87.7614 45.7147 87.6587 45.976C87.5654 46.2373 87.4814 46.4893 87.4067 46.732C87.332 46.9747 87.2807 47.1753 87.2527 47.334C87.2247 47.4833 87.2294 47.558 87.2667 47.558C87.3974 47.558 87.5514 47.5067 87.7287 47.404C87.9154 47.292 88.0927 47.1567 88.2607 46.998C88.4567 46.802 88.6294 46.5873 88.7787 46.354C88.9374 46.1207 89.096 45.8733 89.2547 45.612C89.376 45.4253 89.502 45.22 89.6327 44.996C89.7727 44.772 89.8614 44.6133 89.8987 44.52C90.0294 44.2773 90.1274 44.114 90.1927 44.03C90.258 43.9367 90.3374 43.876 90.4307 43.848C90.4774 43.848 90.5194 43.848 90.5567 43.848C90.6034 43.848 90.6267 43.848 90.6267 43.848C90.6827 43.8573 90.748 43.8993 90.8227 43.974C90.8974 44.0113 90.9394 44.0487 90.9487 44.086C90.958 44.114 90.9627 44.1513 90.9627 44.198C90.9254 44.2913 90.8647 44.4313 90.7807 44.618C90.706 44.7953 90.65 44.926 90.6127 45.01C90.4354 45.4113 90.258 45.808 90.0807 46.2C89.9127 46.5827 89.7914 46.9747 89.7167 47.376C89.698 47.5067 89.6934 47.6607 89.7027 47.838C89.7214 48.006 89.7494 48.1273 89.7867 48.202C89.8147 48.258 89.8474 48.3233 89.8847 48.398C89.9314 48.4633 89.9827 48.5193 90.0387 48.566C90.1227 48.622 90.1367 48.6827 90.0807 48.748C90.034 48.8133 89.9687 48.8693 89.8847 48.916C89.8007 48.9533 89.7447 48.972 89.7167 48.972ZM89.5347 43.162C89.2454 43.1993 89.0027 43.1153 88.8067 42.91C88.6107 42.7047 88.4614 42.4013 88.3587 42C88.34 41.9253 88.3307 41.86 88.3307 41.804C88.34 41.7387 88.3587 41.6827 88.3867 41.636C88.4054 41.5987 88.4427 41.5707 88.4987 41.552C88.5547 41.524 88.6014 41.5193 88.6387 41.538C88.7694 41.5847 88.8627 41.6453 88.9187 41.72C88.984 41.7853 89.026 41.8693 89.0447 41.972C89.0634 42.0187 89.0727 42.0653 89.0727 42.112C89.082 42.1587 89.0867 42.1773 89.0867 42.168C89.1334 42.3173 89.194 42.42 89.2687 42.476C89.3434 42.532 89.4554 42.5273 89.6047 42.462C89.7634 42.3967 89.9174 42.322 90.0667 42.238C90.2254 42.154 90.3654 42.0513 90.4867 41.93C90.5894 41.8273 90.6874 41.734 90.7807 41.65C90.8834 41.566 90.9814 41.4773 91.0747 41.384L91.0887 41.37C91.126 41.342 91.1727 41.3327 91.2287 41.342C91.2847 41.3513 91.3174 41.3653 91.3267 41.384C91.392 41.4493 91.4247 41.5147 91.4247 41.58C91.4247 41.6453 91.4247 41.7153 91.4247 41.79L91.4107 41.818C91.4294 41.874 91.3827 41.9813 91.2707 42.14C91.168 42.2987 91.042 42.434 90.8927 42.546C90.762 42.6487 90.622 42.742 90.4727 42.826C90.3234 42.91 90.1694 42.9893 90.0107 43.064C89.9454 43.1013 89.8754 43.1247 89.8007 43.134C89.7354 43.134 89.6467 43.1433 89.5347 43.162ZM96.3806 44.03C96.5113 43.9553 96.6466 43.932 96.7866 43.96C96.9266 43.9787 97.0339 44.0393 97.1086 44.142C97.1926 44.2353 97.2066 44.3567 97.1506 44.506C97.1693 44.45 97.1459 44.4873 97.0806 44.618C97.0246 44.7393 96.9499 44.898 96.8566 45.094C96.7726 45.29 96.6933 45.4767 96.6186 45.654C96.5533 45.822 96.5113 45.92 96.4926 45.948V45.99C96.6419 45.99 96.7306 46.0367 96.7586 46.13C96.7959 46.214 96.8099 46.312 96.8006 46.424C96.6886 46.4427 96.6093 46.4753 96.5626 46.522C96.5159 46.5593 96.4553 46.5827 96.3806 46.592C96.3526 46.592 96.3199 46.606 96.2826 46.634C96.2453 46.662 96.2219 46.6947 96.2126 46.732C96.2033 46.76 96.1753 46.872 96.1286 47.068C96.0913 47.2547 96.0446 47.46 95.9886 47.684C95.9419 47.8987 95.8999 48.062 95.8626 48.174C95.8439 48.2487 95.8066 48.3093 95.7506 48.356C95.6946 48.3933 95.6573 48.4167 95.6386 48.426C95.4519 48.3513 95.3259 48.3047 95.2606 48.286C95.2046 48.258 95.1486 48.2207 95.0926 48.174C95.0833 48.118 95.0833 48.0527 95.0926 47.978C95.1019 47.894 95.1253 47.796 95.1626 47.684C95.2093 47.544 95.2466 47.4133 95.2746 47.292C95.3119 47.1613 95.3493 46.9793 95.3866 46.746C95.3493 46.7273 95.2699 46.7273 95.1486 46.746C95.0366 46.7553 94.9153 46.7693 94.7846 46.788C94.6539 46.8067 94.5419 46.8253 94.4486 46.844C94.3646 46.8627 94.3273 46.8673 94.3366 46.858C94.2899 46.8767 94.2013 46.8907 94.0706 46.9C93.9493 46.9 93.8233 46.8953 93.6926 46.886C93.5713 46.8673 93.4826 46.8487 93.4266 46.83L93.3426 46.872C93.3333 46.9653 93.2913 47.1053 93.2166 47.292C93.1419 47.4693 93.1046 47.6373 93.1046 47.796C93.0953 47.9173 93.0766 48.0387 93.0486 48.16C93.0206 48.2813 93.0019 48.4073 92.9926 48.538C92.9833 48.7433 92.9273 48.8693 92.8246 48.916C92.7313 48.9627 92.5866 48.93 92.3906 48.818C92.3439 48.79 92.2973 48.7573 92.2506 48.72C92.2133 48.6827 92.1713 48.6407 92.1246 48.594L92.3486 47.516C92.3859 47.3853 92.4186 47.264 92.4466 47.152C92.4746 47.0307 92.5073 46.914 92.5446 46.802C92.6193 46.5967 92.6893 46.3867 92.7546 46.172C92.8293 45.9573 92.9133 45.7567 93.0066 45.57C93.0066 45.57 93.0206 45.5233 93.0486 45.43C93.0859 45.3273 93.1279 45.2153 93.1746 45.094C93.2213 44.9633 93.2586 44.8607 93.2866 44.786C93.3146 44.7113 93.3193 44.6973 93.3006 44.744C93.3286 44.688 93.3706 44.5807 93.4266 44.422C93.4826 44.254 93.5339 44.0953 93.5806 43.946C93.6366 43.7873 93.6646 43.7033 93.6646 43.694C93.6833 43.638 93.7113 43.6007 93.7486 43.582C93.7859 43.554 93.8326 43.54 93.8886 43.54C94.0473 43.5307 94.1779 43.568 94.2806 43.652C94.3833 43.7267 94.4393 43.82 94.4486 43.932C94.4393 43.988 94.4346 44.0393 94.4346 44.086C94.4346 44.1327 94.4253 44.17 94.4066 44.198L93.6786 45.976V46.088C93.7719 46.144 93.9073 46.1533 94.0846 46.116C94.2713 46.0693 94.4113 46.046 94.5046 46.046C94.5513 46.0367 94.6586 46.0273 94.8266 46.018C95.0039 46.0087 95.1719 46.004 95.3306 46.004C95.4986 46.004 95.5873 46.0087 95.5966 46.018C95.6993 45.738 95.7926 45.4767 95.8766 45.234C95.9606 44.982 96.0773 44.7253 96.2266 44.464C96.2359 44.4453 96.2546 44.3847 96.2826 44.282C96.3199 44.1793 96.3526 44.0953 96.3806 44.03ZM101.324 48.972C101.231 48.8787 101.137 48.7527 101.044 48.594C100.951 48.426 100.876 48.2347 100.82 48.02C100.801 47.9453 100.792 47.8427 100.792 47.712C100.801 47.5813 100.801 47.488 100.792 47.432C100.764 47.4973 100.717 47.5673 100.652 47.642C100.596 47.7073 100.54 47.7633 100.484 47.81C100.447 47.8473 100.363 47.922 100.232 48.034C100.101 48.1367 99.9708 48.2207 99.8401 48.286C99.5321 48.482 99.2755 48.5893 99.0701 48.608C98.8741 48.6267 98.6875 48.524 98.5101 48.3C98.3608 48.1787 98.2535 48.0433 98.1881 47.894C98.1321 47.7447 98.1321 47.5393 98.1881 47.278C98.2068 46.9513 98.2535 46.634 98.3281 46.326C98.4028 46.0087 98.5568 45.5887 98.7901 45.066C98.9861 44.6833 99.1355 44.4033 99.2381 44.226C99.3408 44.0393 99.4061 43.9273 99.4341 43.89C99.5741 43.8433 99.6908 43.848 99.7841 43.904C99.8775 43.9507 99.9335 44.0393 99.9521 44.17C100.008 44.2633 99.9988 44.422 99.9241 44.646C99.8588 44.87 99.7421 45.1453 99.5741 45.472C99.4435 45.7893 99.3221 46.1067 99.2101 46.424C99.1075 46.7413 99.0468 47.012 99.0281 47.236C99.0095 47.46 99.0655 47.5953 99.1961 47.642C99.2801 47.6887 99.4248 47.6747 99.6301 47.6C99.8448 47.5253 100.083 47.3387 100.344 47.04C100.615 46.7413 100.876 46.2887 101.128 45.682C101.203 45.4953 101.259 45.332 101.296 45.192C101.333 45.0427 101.357 44.8793 101.366 44.702C101.347 44.59 101.352 44.492 101.38 44.408C101.417 44.3147 101.492 44.2353 101.604 44.17C101.641 44.1233 101.693 44.0813 101.758 44.044C101.823 43.9973 101.865 43.9973 101.884 44.044L102.108 44.03C102.145 44.0207 102.169 44.044 102.178 44.1C102.197 44.1467 102.229 44.1887 102.276 44.226C102.379 44.31 102.407 44.492 102.36 44.772C102.313 45.052 102.183 45.444 101.968 45.948C101.791 46.3307 101.669 46.62 101.604 46.816C101.548 47.012 101.515 47.2033 101.506 47.39C101.506 47.558 101.539 47.7167 101.604 47.866C101.669 48.0153 101.772 48.1507 101.912 48.272C102.015 48.3373 102.071 48.412 102.08 48.496C102.099 48.58 102.103 48.678 102.094 48.79C102.075 48.874 102.019 48.944 101.926 49C101.842 49.0467 101.744 49.07 101.632 49.07C101.52 49.07 101.417 49.0373 101.324 48.972ZM103.328 48.93C103.253 48.902 103.174 48.846 103.09 48.762C103.006 48.6687 102.936 48.5613 102.88 48.44C102.824 48.3187 102.796 48.2067 102.796 48.104C102.842 48.0013 102.903 47.824 102.978 47.572C103.052 47.3107 103.146 47.012 103.258 46.676C103.332 46.5733 103.388 46.452 103.426 46.312C103.472 46.172 103.514 46.046 103.552 45.934C103.626 45.7847 103.715 45.5933 103.818 45.36C103.92 45.1173 104.018 44.8747 104.112 44.632C104.214 44.38 104.303 44.17 104.378 44.002C104.48 43.7593 104.541 43.61 104.56 43.554C104.578 43.4887 104.592 43.4373 104.602 43.4C104.602 43.3253 104.62 43.2647 104.658 43.218C104.695 43.162 104.732 43.134 104.77 43.134C104.807 43.0967 104.849 43.078 104.896 43.078C104.952 43.0687 104.998 43.064 105.036 43.064C105.138 43.064 105.227 43.134 105.302 43.274C105.376 43.4047 105.414 43.526 105.414 43.638C105.414 43.75 105.372 43.9087 105.288 44.114C105.213 44.31 105.124 44.5153 105.022 44.73C104.928 44.9447 104.849 45.1313 104.784 45.29C104.718 45.4487 104.7 45.542 104.728 45.57C104.728 45.57 104.793 45.542 104.924 45.486C105.054 45.4207 105.194 45.332 105.344 45.22C105.446 45.164 105.558 45.094 105.68 45.01C105.801 44.926 105.918 44.8467 106.03 44.772C106.142 44.688 106.235 44.6367 106.31 44.618C106.422 44.5433 106.538 44.4733 106.66 44.408C106.781 44.3333 106.86 44.2773 106.898 44.24C107.056 44.1653 107.173 44.142 107.248 44.17C107.332 44.198 107.416 44.268 107.5 44.38C107.602 44.5013 107.621 44.6087 107.556 44.702C107.49 44.786 107.336 44.9027 107.094 45.052C106.898 45.1733 106.66 45.318 106.38 45.486C106.109 45.654 105.866 45.8033 105.652 45.934C105.446 46.0647 105.33 46.144 105.302 46.172C105.302 46.172 105.339 46.242 105.414 46.382C105.488 46.522 105.563 46.648 105.638 46.76C105.712 46.9093 105.792 47.0493 105.876 47.18C105.969 47.3013 106.016 47.3853 106.016 47.432C106.09 47.628 106.184 47.7913 106.296 47.922C106.408 48.0433 106.534 48.1227 106.674 48.16C106.823 48.188 106.972 48.1693 107.122 48.104C107.308 48.0293 107.444 48.006 107.528 48.034C107.621 48.062 107.686 48.132 107.724 48.244C107.761 48.3187 107.77 48.3747 107.752 48.412C107.742 48.44 107.682 48.51 107.57 48.622C107.392 48.7993 107.21 48.9113 107.024 48.958C106.846 49.0047 106.683 48.9907 106.534 48.916C106.44 48.916 106.333 48.8787 106.212 48.804C106.09 48.72 105.941 48.5847 105.764 48.398C105.596 48.2113 105.386 47.95 105.134 47.614C105.134 47.5767 105.115 47.5253 105.078 47.46C105.05 47.3853 105.017 47.3153 104.98 47.25C104.942 47.1753 104.896 47.096 104.84 47.012C104.784 46.9187 104.756 46.872 104.756 46.872C104.756 46.844 104.746 46.8207 104.728 46.802C104.718 46.774 104.7 46.7413 104.672 46.704C104.653 46.6667 104.63 46.6247 104.602 46.578C104.452 46.5313 104.345 46.5593 104.28 46.662C104.214 46.7647 104.144 46.872 104.07 46.984C104.023 47.1053 103.962 47.278 103.888 47.502C103.822 47.7167 103.766 47.9267 103.72 48.132C103.682 48.3373 103.673 48.4773 103.692 48.552C103.692 48.7013 103.668 48.804 103.622 48.86C103.575 48.9067 103.477 48.93 103.328 48.93Z" fill="white"/>
<path d="M40.3094 8.73909C40.0545 8.66671 39.2909 8.46611 37.3796 7.91005C35.0058 7.21944 31.2154 7.7762 28.8064 8.77993C27.361 5.36724 24.8253 0.281708 24.1646 1.08469C23.5038 1.88768 22.2678 6.0364 21.9924 8.77993C19.0191 17.2916 23.4075 21.5608 26.2294 22.7653C31.8734 22.7653 40.8651 23.8761 44.4992 22.4307C48.1334 20.9853 48.5601 12.3265 46.7706 8.77993C46.3576 6.10332 45.3252 0.950828 44.4992 1.75381C43.5167 2.7091 40.1026 8.21027 40.3094 8.73909ZM40.3094 8.73909C40.4532 8.77993 40.435 8.77993 40.3696 8.77993C40.3397 8.77993 40.3199 8.7659 40.3094 8.73909ZM47.4975 10.1183C53.2791 5.50109 65.255 3.49365 73.9274 6.90633C79.5949 9.13657 86.3164 23.3675 81.1545 28.3863C73.7209 34.2078 64.842 34.4086 54.7243 34.4086C44.6066 34.4086 20.448 39.2265 23.7517 21.3601M28.7073 16.3414C28.7761 17.5459 29.4093 19.7943 31.3916 19.1519C33.3738 18.5095 34.007 17.2782 34.0759 16.7429C34.007 17.6797 34.2823 19.5935 35.9342 19.7541C37.5861 19.9147 38.825 18.0812 39.238 17.1444M33.6629 16.5422L34.6953 16.7429M25.61 15.7392L23.1322 14.9362M25.8165 17.5459L23.5451 17.9474M42.5417 16.5422L45.4325 16.1407M42.5417 17.9474L44.8131 18.7504M29.1202 13.9325C29.1202 14.1542 28.9353 14.334 28.7073 14.334C28.4792 14.334 28.2943 14.1542 28.2943 13.9325C28.2943 13.7107 28.4792 13.531 28.7073 13.531C28.9353 13.531 29.1202 13.7107 29.1202 13.9325ZM40.2704 13.9325C40.2704 14.1542 40.0855 14.334 39.8574 14.334C39.6294 14.334 39.4445 14.1542 39.4445 13.9325C39.4445 13.7107 39.6294 13.531 39.8574 13.531C40.0855 13.531 40.2704 13.7107 40.2704 13.9325Z" stroke="white"/>
</svg>
