<svg width="84" height="52" viewBox="0 0 84 52" fill="none" xmlns="http://www.w3.org/2000/svg">
<path d="M26.5382 12.381C26.2011 12.2746 25.1911 11.9796 22.6633 11.1618C19.5238 10.1462 14.5107 10.965 11.3246 12.4411C9.41298 7.42242 6.05933 -0.0563118 5.18543 1.12455C4.31154 2.30541 2.6767 8.40647 2.31258 12.4411C-1.61995 24.9582 4.1841 31.2365 7.91637 33.0078C15.3809 33.0078 27.2732 34.6413 32.0796 32.5157C36.8861 30.3902 37.4505 17.6566 35.0837 12.4411C34.5375 8.50488 33.172 0.927688 32.0796 2.10855C30.7801 3.51338 26.2648 11.6033 26.5382 12.381ZM26.5382 12.381C26.7285 12.4411 26.7044 12.4411 26.6178 12.4411C26.5783 12.4411 26.5521 12.4204 26.5382 12.381ZM36.0451 14.4093C43.6917 7.61925 59.5308 4.66713 71.0007 9.68578C78.4964 12.9655 87.3862 33.8934 80.5591 41.2739C70.7276 49.835 58.9846 50.1303 45.6031 50.1303C32.2216 50.1303 0.269903 57.2154 4.63939 30.9413M11.1935 23.5609C11.2845 25.3322 12.122 28.6386 14.7437 27.6939C17.3654 26.7492 18.2028 24.9386 18.2939 24.1513C18.2028 25.529 18.567 28.3434 20.7517 28.5796C22.9364 28.8157 24.575 26.1194 25.1212 24.7418M17.7477 23.8561L19.1132 24.1513M7.09709 22.6753L3.81998 21.4944M7.37018 25.3322L4.36617 25.9226M29.4907 23.8561L33.314 23.2657M29.4907 25.9226L32.4947 27.1035M11.7397 20.0183C11.7397 20.3444 11.4951 20.6088 11.1935 20.6088C10.8918 20.6088 10.6473 20.3444 10.6473 20.0183C10.6473 19.6922 10.8918 19.4279 11.1935 19.4279C11.4951 19.4279 11.7397 19.6922 11.7397 20.0183ZM26.4867 20.0183C26.4867 20.3444 26.2421 20.6088 25.9405 20.6088C25.6388 20.6088 25.3943 20.3444 25.3943 20.0183C25.3943 19.6922 25.6388 19.4279 25.9405 19.4279C26.2421 19.4279 26.4867 19.6922 26.4867 20.0183Z" stroke="white"/>
</svg>
