<svg width="215" height="215" viewBox="0 0 215 215" fill="none" xmlns="http://www.w3.org/2000/svg">
<circle cx="107.5" cy="107.5" r="106" stroke="#D9D9D9" stroke-width="3"/>
<path d="M97.4041 136.59L68.9494 138.486C66.7581 138.632 64.5746 138.118 62.7246 137.022L45.6619 126.911C43.873 125.851 42.4871 124.3 41.6982 122.475L30.7285 97.1C30.0362 95.4985 29.8321 93.7519 30.1386 92.0505L33.4021 73.9327C33.6279 72.6793 34.1253 71.481 34.8645 70.41L46.2534 53.9073C46.906 52.9617 47.7359 52.1315 48.7039 51.4558L59.7598 43.7387C61.0702 42.824 62.6002 42.2159 64.2194 41.9662L86.8963 38.4691C87.4497 38.3838 88.0098 38.3409 88.5708 38.3409H114.21L134.056 36.0714C135.899 35.8606 137.768 36.1179 139.46 36.8272C146.326 39.7064 156.678 44.1786 157.754 45.1736C158.976 46.3045 168.958 57.1111 173.796 62.3731L182.824 73.0042C184.234 74.6646 185 76.7151 185 78.8268V92.8692C185 94.047 184.761 95.2145 184.296 96.311L172.523 124.078C172.185 124.876 171.731 125.628 171.173 126.312L164.12 134.962C162.196 137.323 159.185 138.711 155.989 138.711H142.985L125.414 136.59M97.4041 168.305V132.756C97.4041 132.369 97.1475 132.021 96.7575 131.879L64.5641 120.193C64.3919 120.131 64.2414 120.026 64.1287 119.89L50.5592 103.568C49.8475 102.712 50.9982 101.601 51.9527 102.223L66.9612 111.995C67.0544 112.056 67.158 112.102 67.2676 112.131L94.938 119.446C95.8244 119.68 96.5645 118.791 96.0933 118.058L75.1389 85.4499C75.0453 85.3042 74.9958 85.1378 74.9958 84.9682V70.8885C74.9958 69.8386 76.5716 69.5752 76.9686 70.5588L82.8338 85.0889C82.8708 85.1806 82.923 85.2664 82.9885 85.3432L103.989 109.956C104.588 110.658 105.807 110.266 105.807 109.372V81.5604C105.807 81.492 105.815 81.4238 105.831 81.3571L109.533 65.8528C109.774 64.8446 111.339 64.877 111.531 65.8942L114.45 81.3771C114.46 81.4306 114.465 81.4848 114.465 81.5391V107.384C114.465 108.311 115.76 108.681 116.325 107.915L132.996 85.3052C133.034 85.2534 133.067 85.1981 133.093 85.1403L140.4 69.1073C140.811 68.2057 142.251 68.409 142.353 69.383L143.973 84.9414C143.993 85.1277 143.952 85.3152 143.855 85.4799L124.822 118.06C124.388 118.804 125.149 119.66 126.022 119.408L151.2 112.141C151.324 112.105 151.439 112.048 151.54 111.972L165.801 101.227C166.638 100.597 167.821 101.446 167.369 102.353L158.689 119.753C158.579 119.974 158.381 120.147 158.136 120.236L126.061 131.879C125.671 132.021 125.414 132.369 125.414 132.756V165.248C125.414 165.592 125.617 165.909 125.943 166.074L147.906 177.231C148.83 177.701 148.47 179 147.416 179H81.0793C80.0207 179 79.6647 177.691 80.5971 177.227L96.8678 169.136C97.1981 168.971 97.4041 168.652 97.4041 168.305Z" stroke="#D9D9D9" stroke-width="3"/>
</svg>
