<svg width="35" height="24" viewBox="0 0 35 24" fill="none" xmlns="http://www.w3.org/2000/svg">
<path d="M31.0344 10.67C33.0002 10.5086 34.3336 9.61907 34.8467 8.41213C34.1376 8.84571 31.9365 9.31841 30.7208 8.86822C30.6613 8.58392 30.5947 8.31388 30.5294 8.07008C29.6031 4.68455 26.4316 1.95705 23.1086 2.28655C23.3775 2.1785 23.6501 2.0779 23.922 1.98759C24.2878 1.85719 26.4338 1.50963 26.0959 0.755623C25.8111 0.092418 23.1891 1.25683 22.6954 1.40903C23.3471 1.16506 24.4249 0.745417 24.5404 0C23.5419 0.136318 22.5618 0.606183 21.8044 1.28939C22.0779 0.996428 22.2853 0.639392 22.3293 0.255141C19.6663 1.94855 18.1107 5.36258 16.8517 8.67432C15.8632 7.72074 14.9871 6.96981 14.2011 6.55284C11.9961 5.37587 9.35971 4.14787 5.22115 2.61864C5.09413 3.98158 5.89834 5.79381 8.21568 6.99897C7.71361 6.93207 6.79548 7.08134 6.06116 7.25638C6.36021 8.81776 7.33685 10.1042 9.98083 10.7262C8.77252 10.8056 8.14806 11.0793 7.58211 11.6692C8.13244 12.7551 9.47534 14.0332 11.8911 13.7708C9.20526 14.9231 10.7959 17.057 12.9814 16.7387C9.25319 20.5718 3.37528 20.29 0 17.0841C8.81264 29.037 27.9693 24.153 30.8241 12.6401C32.963 12.6582 34.2204 11.9026 35 11.0696C33.7677 11.2777 31.9815 11.0626 31.0344 10.67Z" fill="#D9D9D9"/>
</svg>
