<svg width="215" height="215" viewBox="0 0 215 215" fill="none" xmlns="http://www.w3.org/2000/svg">
<circle cx="107.5" cy="107.5" r="106" stroke="#D9D9D9" stroke-width="3"/>
<path d="M115.154 44.7891C115.208 44.8041 115.23 44.8197 115.234 44.8227C115.238 44.8258 115.239 44.8274 115.241 44.8306C115.247 44.8399 115.271 44.8892 115.262 44.9837C115.253 45.0778 115.215 45.1687 115.16 45.2347C115.114 45.2908 115.048 45.3399 114.935 45.3641C86.3338 51.5149 64.8973 77.2309 64.8973 108C64.8973 138.769 86.3338 164.485 114.935 170.636C115.048 170.66 115.114 170.709 115.16 170.765C115.215 170.831 115.253 170.922 115.262 171.016C115.271 171.111 115.247 171.16 115.241 171.169C115.241 171.171 115.24 171.171 115.239 171.172C115.238 171.174 115.237 171.175 115.234 171.177C115.23 171.18 115.208 171.196 115.154 171.211C109.737 172.703 104.036 173.5 98.1487 173.5C62.4622 173.5 33.5 144.193 33.5 108C33.5 71.8072 62.4622 42.5 98.1487 42.5C104.036 42.5 109.737 43.2969 115.154 44.7891ZM96.7162 141.535C96.6967 141.492 96.6913 141.468 96.6902 141.456C96.6952 141.446 96.7154 141.412 96.7741 141.372C96.9334 141.265 97.145 141.256 97.3202 141.385C112.506 152.542 134.381 152.124 150.594 139.201C166.802 126.282 172.334 104.868 165.208 87.3171C165.117 87.093 165.186 86.8643 165.332 86.7277C165.366 86.6958 165.393 86.6807 165.408 86.6737C165.418 86.6794 165.433 86.689 165.452 86.7045C167.807 88.6075 169.978 90.807 171.915 93.2994C186.25 111.75 182.253 139.343 162.74 154.896C143.237 170.441 115.851 167.887 101.527 149.451C99.5901 146.958 97.9894 144.302 96.7162 141.535ZM142.502 111.195C142.499 111.198 142.496 111.201 142.494 111.203C142.483 111.196 142.47 111.186 142.456 111.174C142.294 111.03 142.2 110.763 142.291 110.503C146.529 98.3309 143.024 84.2414 132.527 75.6373C122.026 67.0292 107.667 66.4876 96.7776 73.2359C96.567 73.3664 96.3122 73.3373 96.1433 73.21C96.1144 73.1882 96.0965 73.1696 96.0859 73.1564C96.0904 73.1462 96.0971 73.1329 96.1067 73.1165C96.8378 71.8734 97.6657 70.6675 98.5914 69.5089C109.056 56.4125 128.024 54.4029 140.968 65.0132C153.923 75.6329 155.941 94.8748 145.467 107.983C144.541 109.141 143.55 110.212 142.502 111.195ZM101.854 87.4533C101.854 87.2769 101.99 87.1667 102.118 87.1667H113.583C113.711 87.1667 113.847 87.2769 113.847 87.4533V98.62C113.847 100.417 115.291 101.907 117.111 101.907H128.136C128.264 101.907 128.4 102.017 128.4 102.193V113.807C128.4 113.983 128.264 114.093 128.136 114.093H117.111C115.291 114.093 113.847 115.583 113.847 117.38V128.547C113.847 128.723 113.711 128.833 113.583 128.833H102.118C101.99 128.833 101.854 128.723 101.854 128.547V117.38C101.854 115.583 100.41 114.093 98.5897 114.093H87.5649C87.4372 114.093 87.301 113.983 87.301 113.807V102.193C87.301 102.017 87.4372 101.907 87.5649 101.907H98.5897C100.41 101.907 101.854 100.417 101.854 98.62V87.4533Z" stroke="#D9D9D9" stroke-width="3"/>
</svg>
