<svg width="39" height="25" viewBox="0 0 39 25" fill="none" xmlns="http://www.w3.org/2000/svg">
<path d="M38.6524 21.5659C38.5476 21.381 37.8991 19.8965 34.7789 16.8453C31.5124 13.6503 31.9512 14.1691 35.8856 8.6446C38.2819 5.28008 39.2399 3.22542 38.94 2.34705C38.6548 1.50977 36.8924 1.73065 36.8924 1.73065L31.0322 1.7666C31.0322 1.7666 30.5983 1.70496 30.2741 1.90786C29.9596 2.10819 29.7573 2.57049 29.7573 2.57049C29.7573 2.57049 28.8285 5.17478 27.5902 7.38868C24.9794 12.0605 23.9337 12.307 23.5071 12.0168C22.5149 11.3413 22.7636 9.29952 22.7636 7.85098C22.7636 3.32301 23.4145 1.43529 21.4936 0.947304C20.8549 0.785499 20.3869 0.677629 18.756 0.659651C16.6645 0.636536 14.8923 0.667356 13.8904 1.18359C13.2225 1.52775 12.7082 2.29568 13.0226 2.33934C13.4102 2.39328 14.2878 2.58847 14.7534 3.25624C15.3555 4.11663 15.3335 6.05315 15.3335 6.05315C15.3335 6.05315 15.6797 11.3824 14.5267 12.0451C13.7344 12.4997 12.6497 11.5725 10.3217 7.33218C9.12965 5.16194 8.22771 2.76055 8.22771 2.76055C8.22771 2.76055 8.05464 2.31366 7.74505 2.0748C7.36965 1.78458 6.84311 1.69212 6.84311 1.69212L1.27058 1.72808C1.27058 1.72808 0.434451 1.75376 0.127304 2.13644C-0.145717 2.47803 0.105364 3.18175 0.105364 3.18175C0.105364 3.18175 4.46881 13.9354 9.40755 19.3571C13.9392 24.3268 19.0827 24.0007 19.0827 24.0007H21.4131C21.4131 24.0007 22.1176 23.9185 22.4759 23.5101C22.8075 23.1351 22.7953 22.4314 22.7953 22.4314C22.7953 22.4314 22.749 19.1362 24.2018 18.6508C25.6327 18.1731 27.4708 21.8356 29.4185 23.2456C30.8908 24.3114 32.0097 24.0777 32.0097 24.0777L37.219 24.0007C37.219 24.0007 39.9444 23.8234 38.6524 21.5659Z" fill="#D9D9D9"/>
</svg>
